<svg width="100" height="100" viewBox="0 0 100 100" fill="none" xmlns="http://www.w3.org/2000/svg">
<path d="M58.3333 94.7917H41.6667C19.0417 94.7917 9.375 85.125 9.375 62.5V37.5C9.375 14.875 19.0417 5.20834 41.6667 5.20834H58.3333C80.9583 5.20834 90.625 14.875 90.625 37.5V62.5C90.625 85.125 80.9583 94.7917 58.3333 94.7917ZM41.6667 11.4583C22.4583 11.4583 15.625 18.2917 15.625 37.5V62.5C15.625 81.7083 22.4583 88.5417 41.6667 88.5417H58.3333C77.5417 88.5417 84.375 81.7083 84.375 62.5V37.5C84.375 18.2917 77.5417 11.4583 58.3333 11.4583H41.6667Z" fill="white"/>
<path d="M62.5 45.125H37.5C32.3333 45.125 28.125 40.9167 28.125 35.75V31.5833C28.125 26.4167 32.3333 22.2083 37.5 22.2083H62.5C67.6667 22.2083 71.875 26.4167 71.875 31.5833V35.75C71.875 40.9167 67.6667 45.125 62.5 45.125ZM37.5 28.4583C35.7917 28.4583 34.375 29.875 34.375 31.5833V35.75C34.375 37.4583 35.7917 38.875 37.5 38.875H62.5C64.2083 38.875 65.625 37.4583 65.625 35.75V31.5833C65.625 29.875 64.2083 28.4583 62.5 28.4583H37.5Z" fill="white"/>
<path d="M33.9585 62.1667C33.4168 62.1667 32.8752 62.0417 32.3752 61.8333C31.8752 61.625 31.4168 61.3333 31.0418 60.9583C30.2502 60.1667 29.8335 59.125 29.8335 58C29.8335 57.4583 29.9168 56.9167 30.1252 56.4167C30.3335 55.875 30.6252 55.4583 31.0418 55.0417C31.2085 54.875 31.4168 54.6667 31.6668 54.5417C31.8752 54.375 32.1252 54.25 32.3752 54.1667C32.6252 54.0417 32.9168 53.9583 33.1668 53.9167C34.5002 53.625 35.9585 54.0833 36.9168 55.0417C37.2918 55.4167 37.6252 55.875 37.8335 56.4167C38.0418 56.9167 38.1668 57.4583 38.1668 58C38.1668 59.125 37.7085 60.1667 36.9168 60.9583C36.1252 61.75 35.0835 62.1667 33.9585 62.1667Z" fill="white"/>
<path d="M50.6667 62.1667C49.5417 62.1667 48.5 61.75 47.7083 60.9583C46.9167 60.1667 46.5 59.125 46.5 58C46.5 57.4583 46.5833 56.9167 46.7917 56.4167C47 55.875 47.2917 55.4583 47.7083 55.0417C47.875 54.875 48.0833 54.6667 48.3333 54.5417C48.5417 54.375 48.7917 54.25 49.0417 54.1667C49.2917 54.0417 49.5833 53.9583 49.8333 53.9167C50.625 53.75 51.4583 53.8333 52.25 54.1667C52.75 54.375 53.2083 54.6667 53.5833 55.0417C53.9583 55.4583 54.2917 55.875 54.5 56.4167C54.7083 56.9167 54.8333 57.4583 54.8333 58C54.8333 59.125 54.375 60.1667 53.5833 60.9583C52.7917 61.75 51.75 62.1667 50.6667 62.1667Z" fill="white"/>
<path d="M67.2917 62.1667C66.7501 62.1667 66.2084 62.0417 65.7084 61.8333C65.2084 61.625 64.7501 61.3333 64.3751 60.9583C63.9584 60.5417 63.6667 60.0833 63.4584 59.5833C63.2501 59.0833 63.1667 58.5417 63.1667 58C63.1667 57.4583 63.2501 56.9167 63.4584 56.4167C63.6667 55.875 63.9584 55.4583 64.3751 55.0417C65.9167 53.5 68.7084 53.5 70.2501 55.0417C71.0418 55.8333 71.5001 56.9167 71.5001 58C71.5001 59.125 71.0418 60.1667 70.2501 60.9583C69.5001 61.7083 68.4584 62.1667 67.2917 62.1667Z" fill="white"/>
<path d="M33.9998 78.8333C32.8748 78.8333 31.8332 78.4167 31.0415 77.625C30.2498 76.8333 29.7915 75.7917 29.7915 74.6667C29.7915 73.5833 30.2498 72.5 31.0415 71.7083C31.2082 71.5417 31.4582 71.3333 31.6665 71.2083C31.8748 71.0417 32.1248 70.9167 32.3748 70.8333C32.6248 70.7083 32.9165 70.625 33.1665 70.5833C34.5415 70.3333 35.9582 70.75 36.9165 71.7083C37.1248 71.9167 37.2915 72.125 37.4582 72.3333C37.5832 72.5833 37.7082 72.8333 37.8332 73.0833C37.9165 73.3333 37.9998 73.5833 38.0832 73.8333C38.1248 74.125 38.1665 74.375 38.1665 74.6667C38.1665 75.7917 37.7082 76.8333 36.9165 77.625C36.1248 78.4167 35.0832 78.8333 33.9998 78.8333Z" fill="white"/>
<path d="M50.6666 78.8333C49.5416 78.8333 48.4999 78.4167 47.7083 77.625C46.9166 76.8333 46.4583 75.7917 46.4583 74.6667C46.4583 73.5833 46.9166 72.5 47.7083 71.7083C48.6666 70.75 50.1249 70.3333 51.4583 70.5833C51.7083 70.625 51.9999 70.7083 52.2499 70.8333C52.4999 70.9167 52.7499 71.0417 52.9583 71.2083C53.1666 71.3333 53.3749 71.5417 53.5833 71.7083C54.3749 72.5 54.7916 73.5833 54.7916 74.6667C54.7916 75.7917 54.3749 76.8333 53.5833 77.625C52.7916 78.4167 51.7499 78.8333 50.6666 78.8333Z" fill="white"/>
<path d="M67.2917 78.8333C66.2084 78.8333 65.1667 78.4166 64.3751 77.625C63.5834 76.8333 63.1667 75.7917 63.1667 74.6667C63.1667 73.5833 63.5834 72.5 64.3751 71.7083C64.7501 71.3333 65.2084 71.0417 65.7084 70.8333C67.2501 70.2083 69.1251 70.5416 70.2501 71.7083C71.0418 72.5 71.4584 73.5833 71.4584 74.6667C71.4584 75.7917 71.0418 76.8333 70.2501 77.625C69.8751 78 69.4168 78.2917 68.9168 78.5C68.4168 78.7083 67.8751 78.8333 67.2917 78.8333Z" fill="white"/>
</svg>
