<svg width="100" height="100" viewBox="0 0 100 100" fill="none" xmlns="http://www.w3.org/2000/svg">
<path d="M50.6652 48.4167C50.5402 48.4167 50.4569 48.4167 50.3319 48.4167C50.1235 48.375 49.8319 48.375 49.5819 48.4167C37.4985 48.0417 28.3735 38.5417 28.3735 26.8333C28.3735 14.9167 38.0819 5.20834 49.9985 5.20834C61.9152 5.20834 71.6235 14.9167 71.6235 26.8333C71.5819 38.5417 62.4152 48.0417 50.7902 48.4167C50.7485 48.4167 50.7069 48.4167 50.6652 48.4167ZM49.9985 11.4583C41.5402 11.4583 34.6235 18.375 34.6235 26.8333C34.6235 35.1667 41.1235 41.875 49.4152 42.1667C49.6235 42.125 50.2069 42.125 50.7485 42.1667C58.9152 41.7917 65.3319 35.0833 65.3735 26.8333C65.3735 18.375 58.4569 11.4583 49.9985 11.4583Z" fill="white"/>
<path d="M50.7067 93.9583C42.54 93.9583 34.3317 91.875 28.1234 87.7083C22.3317 83.875 19.165 78.625 19.165 72.9167C19.165 67.2083 22.3317 61.9167 28.1234 58.0417C40.6234 49.75 60.8734 49.75 73.29 58.0417C79.04 61.875 82.2484 67.125 82.2484 72.8333C82.2484 78.5417 79.0817 83.8333 73.29 87.7083C67.04 91.875 58.8734 93.9583 50.7067 93.9583ZM31.5817 63.2917C27.5817 65.9583 25.415 69.375 25.415 72.9583C25.415 76.5 27.6234 79.9167 31.5817 82.5417C41.9567 89.5 59.4567 89.5 69.8317 82.5417C73.8317 79.875 75.9984 76.4583 75.9984 72.875C75.9984 69.3333 73.79 65.9167 69.8317 63.2917C59.4567 56.375 41.9567 56.375 31.5817 63.2917Z" fill="white"/>
</svg>
