<svg width="100" height="100" viewBox="0 0 100 100" fill="none" xmlns="http://www.w3.org/2000/svg">
<path d="M48.6668 64.0417C47.8752 64.0417 47.0835 63.75 46.4585 63.125C45.2502 61.9167 45.2502 59.9167 46.4585 58.7083L54.9168 50.25L46.4585 41.7917C45.2502 40.5833 45.2502 38.5833 46.4585 37.375C47.6668 36.1667 49.6668 36.1667 50.8752 37.375L61.5418 48.0417C62.7502 49.25 62.7502 51.25 61.5418 52.4583L50.8752 63.125C50.2918 63.75 49.4585 64.0417 48.6668 64.0417Z" fill="white"/>
<path d="M59.0415 53.375H16.6665C14.9582 53.375 13.5415 51.9583 13.5415 50.25C13.5415 48.5417 14.9582 47.125 16.6665 47.125H59.0415C60.7498 47.125 62.1665 48.5417 62.1665 50.25C62.1665 51.9583 60.7498 53.375 59.0415 53.375Z" fill="white"/>
<path d="M50 86.4583C48.2917 86.4583 46.875 85.0417 46.875 83.3333C46.875 81.625 48.2917 80.2083 50 80.2083C67.7917 80.2083 80.2083 67.7917 80.2083 50C80.2083 32.2083 67.7917 19.7917 50 19.7917C48.2917 19.7917 46.875 18.375 46.875 16.6667C46.875 14.9583 48.2917 13.5417 50 13.5417C71.4583 13.5417 86.4583 28.5417 86.4583 50C86.4583 71.4583 71.4583 86.4583 50 86.4583Z" fill="white"/>
</svg>
