<svg width="1461" height="542" viewBox="0 0 1461 542" fill="none" xmlns="http://www.w3.org/2000/svg">
<path fill-rule="evenodd" clip-rule="evenodd" d="M406.631 367.691C402.102 367.691 398.394 371.401 398.394 375.934V401.766H444.244V375.934C444.244 371.401 440.542 367.691 436.008 367.691H406.631ZM400.241 354H442.401C448.901 354 454.221 359.323 454.221 365.83V375.476H461.263V381.998H454.221V402.897H388.422V381.998H381.38V375.476H388.422V365.83C388.422 359.323 393.741 354 400.241 354Z" fill="#1B1919"/>
<path fill-rule="evenodd" clip-rule="evenodd" d="M334.567 384.348H508.076C514.063 384.348 518.959 389.251 518.959 395.241V530.082C518.959 536.073 514.063 540.976 508.076 540.976H334.567C328.581 540.976 323.682 536.073 323.682 530.082V395.241C323.682 389.251 328.581 384.348 334.567 384.348Z" fill="#4B1D20"/>
<path fill-rule="evenodd" clip-rule="evenodd" d="M331.054 381.998H511.59C518.867 381.998 524.82 387.956 524.82 395.241V451.769C524.82 459.054 518.867 465.013 511.59 465.013H331.054C323.776 465.013 317.822 459.054 317.822 451.769V395.241C317.822 387.956 323.776 381.998 331.054 381.998Z" fill="#612A2E"/>
<path fill-rule="evenodd" clip-rule="evenodd" d="M407.936 452.669H434.705C437.894 452.669 440.503 455.282 440.503 458.474V471.552C440.503 474.743 437.894 477.355 434.705 477.355H407.936C404.748 477.355 402.139 474.743 402.139 471.552V458.474C402.139 455.282 404.748 452.669 407.936 452.669Z" fill="#F8A10E"/>
<path fill-rule="evenodd" clip-rule="evenodd" d="M408.68 470.809H433.963V459.217H408.68V470.809Z" fill="#FBC907"/>
<path fill-rule="evenodd" clip-rule="evenodd" d="M472.164 374.047H458.603V381.998H476.135V378.022C476.135 375.835 474.346 374.047 472.164 374.047ZM370.478 374.047H384.04V381.998H366.507V378.022C366.507 375.835 368.293 374.047 370.478 374.047Z" fill="#F9B00B"/>
<path fill-rule="evenodd" clip-rule="evenodd" d="M395.481 540.976H464.138V528.147H395.481V540.976Z" fill="#F9B00B"/>
<path fill-rule="evenodd" clip-rule="evenodd" d="M395.481 540.976H464.138V539.928H395.481V540.976Z" fill="#F8A10E"/>
<path fill-rule="evenodd" clip-rule="evenodd" d="M396.922 529.69H398.979V538.997H396.922V529.69ZM402.594 529.69C403.448 529.69 404.307 529.69 405.164 529.69C405.164 532.793 405.164 535.895 405.164 538.997C404.307 538.997 403.448 538.997 402.594 538.997C402.594 535.895 402.594 532.793 402.594 529.69ZM409.281 529.69C410.31 529.69 411.338 529.69 412.364 529.69C412.364 532.793 412.364 535.895 412.364 538.997C411.338 538.997 410.31 538.997 409.281 538.997C409.281 535.895 409.281 532.793 409.281 529.69ZM462.693 529.69H460.637V538.997H462.693V529.69ZM457.025 529.69C456.169 529.69 455.311 529.69 454.455 529.69C454.455 532.793 454.455 535.895 454.455 538.997C455.311 538.997 456.169 538.997 457.025 538.997C457.025 535.895 457.025 532.793 457.025 529.69ZM450.334 529.69C449.309 529.69 448.281 529.69 447.253 529.69C447.253 532.793 447.253 535.895 447.253 538.997C448.281 538.997 449.309 538.997 450.334 538.997C450.334 535.895 450.334 532.793 450.334 529.69ZM427.753 529.69V538.997H431.864V529.69H427.753ZM442.204 529.69C441.003 529.69 439.806 529.69 438.606 529.69C438.606 532.793 438.606 535.895 438.606 538.997C439.806 538.997 441.003 538.997 442.204 538.997C442.204 535.895 442.204 532.793 442.204 529.69ZM417.411 529.69C418.612 529.69 419.813 529.69 421.011 529.69C421.011 532.793 421.011 535.895 421.011 538.997C419.813 538.997 418.612 538.997 417.411 538.997C417.411 535.895 417.411 532.793 417.411 529.69Z" fill="#F48313"/>
<path fill-rule="evenodd" clip-rule="evenodd" d="M401.296 528.148H469.951V515.321H401.296V528.148Z" fill="#F9B00B"/>
<path fill-rule="evenodd" clip-rule="evenodd" d="M401.296 528.148H469.951V527.102H401.296V528.148Z" fill="#F8A10E"/>
<path fill-rule="evenodd" clip-rule="evenodd" d="M402.737 516.863H404.794V526.169H402.737V516.863ZM408.406 516.863C409.263 516.863 410.119 516.863 410.977 516.863C410.977 519.966 410.977 523.068 410.977 526.169C410.119 526.169 409.263 526.169 408.406 526.169C408.406 523.068 408.406 519.966 408.406 516.863ZM415.095 516.863C416.125 516.863 417.151 516.863 418.179 516.863C418.179 519.966 418.179 523.068 418.179 526.169C417.151 526.169 416.125 526.169 415.095 526.169C415.095 523.068 415.095 519.966 415.095 516.863ZM468.508 516.863H466.452V526.169H468.508V516.863ZM462.84 516.863C461.984 516.863 461.127 516.863 460.27 516.863C460.27 519.966 460.27 523.068 460.27 526.169C461.127 526.169 461.984 526.169 462.84 526.169C462.84 523.068 462.84 519.966 462.84 516.863ZM456.149 516.863C455.121 516.863 454.096 516.863 453.068 516.863C453.068 519.966 453.068 523.068 453.068 526.169C454.096 526.169 455.121 526.169 456.149 526.169C456.149 523.068 456.149 519.966 456.149 516.863ZM433.567 516.863V526.169H437.679V516.863H433.567ZM448.019 516.863C446.818 516.863 445.618 516.863 444.421 516.863C444.421 519.966 444.421 523.068 444.421 526.169C445.618 526.169 446.818 526.169 448.019 526.169C448.019 523.068 448.019 519.966 448.019 516.863ZM423.228 516.863C424.427 516.863 425.628 516.863 426.826 516.863C426.826 519.966 426.826 523.068 426.826 526.169C425.628 526.169 424.427 526.169 423.228 526.169C423.228 523.068 423.228 519.966 423.228 516.863Z" fill="#F48313"/>
<path fill-rule="evenodd" clip-rule="evenodd" d="M391.513 515.32H460.17V502.492H391.513V515.32Z" fill="#F9B00B"/>
<path fill-rule="evenodd" clip-rule="evenodd" d="M391.513 515.32H460.17V514.274H391.513V515.32Z" fill="#F8A10E"/>
<path fill-rule="evenodd" clip-rule="evenodd" d="M392.956 504.036H395.01V513.343H392.956V504.036ZM398.625 504.036C399.482 504.036 400.339 504.036 401.195 504.036C401.195 507.139 401.195 510.24 401.195 513.343C400.339 513.343 399.482 513.343 398.625 513.343C398.625 510.24 398.625 507.139 398.625 504.036ZM405.313 504.036C406.341 504.036 407.37 504.036 408.398 504.036C408.398 507.139 408.398 510.24 408.398 513.343C407.37 513.343 406.341 513.343 405.313 513.343C405.313 510.24 405.313 507.139 405.313 504.036ZM458.725 504.036H456.672V513.343H458.725V504.036ZM453.057 504.036C452.201 504.036 451.343 504.036 450.487 504.036C450.487 507.139 450.487 510.24 450.487 513.343C451.343 513.343 452.201 513.343 453.057 513.343C453.057 510.24 453.057 507.139 453.057 504.036ZM446.369 504.036C445.341 504.036 444.313 504.036 443.284 504.036C443.284 507.139 443.284 510.24 443.284 513.343C444.313 513.343 445.341 513.343 446.369 513.343C446.369 510.24 446.369 507.139 446.369 504.036ZM423.784 504.036V513.343H427.898V504.036H423.784ZM438.236 504.036C437.034 504.036 435.838 504.036 434.637 504.036C434.637 507.139 434.637 510.24 434.637 513.343C435.838 513.343 437.034 513.343 438.236 513.343C438.236 510.24 438.236 507.139 438.236 504.036ZM413.446 504.036C414.643 504.036 415.845 504.036 417.045 504.036C417.045 507.139 417.045 510.24 417.045 513.343C415.845 513.343 414.643 513.343 413.446 513.343C413.446 510.24 413.446 507.139 413.446 504.036Z" fill="#F48313"/>
<path fill-rule="evenodd" clip-rule="evenodd" d="M308.404 540.976H377.061V528.147H308.404V540.976Z" fill="#F9B00B"/>
<path fill-rule="evenodd" clip-rule="evenodd" d="M308.404 540.976H377.061V539.928H308.404V540.976Z" fill="#F8A10E"/>
<path fill-rule="evenodd" clip-rule="evenodd" d="M309.847 529.69H311.903V538.997H309.847V529.69ZM315.516 529.69C316.373 529.69 317.23 529.69 318.086 529.69C318.086 532.793 318.086 535.895 318.086 538.997C317.23 538.997 316.373 538.997 315.516 538.997C315.516 535.895 315.516 532.793 315.516 529.69ZM322.204 529.69C323.232 529.69 324.261 529.69 325.29 529.69C325.29 532.793 325.29 535.895 325.29 538.997C324.261 538.997 323.232 538.997 322.204 538.997C322.204 535.895 322.204 532.793 322.204 529.69ZM375.619 529.69H373.561V538.997H375.619V529.69ZM369.947 529.69C369.092 529.69 368.235 529.69 367.378 529.69C367.378 532.793 367.378 535.895 367.378 538.997C368.235 538.997 369.092 538.997 369.947 538.997C369.947 535.895 369.947 532.793 369.947 529.69ZM363.26 529.69C362.233 529.69 361.204 529.69 360.175 529.69C360.175 532.793 360.175 535.895 360.175 538.997C361.204 538.997 362.233 538.997 363.26 538.997C363.26 535.895 363.26 532.793 363.26 529.69ZM340.675 529.69V538.997H344.788V529.69H340.675ZM355.127 529.69C353.927 529.69 352.729 529.69 351.528 529.69C351.528 532.793 351.528 535.895 351.528 538.997C352.729 538.997 353.927 538.997 355.127 538.997C355.127 535.895 355.127 532.793 355.127 529.69ZM330.337 529.69C331.537 529.69 332.736 529.69 333.935 529.69C333.935 532.793 333.935 535.895 333.935 538.997C332.736 538.997 331.537 538.997 330.337 538.997C330.337 535.895 330.337 532.793 330.337 529.69Z" fill="#F48313"/>
<path fill-rule="evenodd" clip-rule="evenodd" d="M303 528.148H371.656V515.321H303V528.148Z" fill="#F9B00B"/>
<path fill-rule="evenodd" clip-rule="evenodd" d="M303 528.148H371.656V527.102H303V528.148Z" fill="#F8A10E"/>
<path fill-rule="evenodd" clip-rule="evenodd" d="M304.442 516.863H306.499V526.169H304.442V516.863ZM310.113 516.863C310.969 516.863 311.827 516.863 312.683 516.863C312.683 519.966 312.683 523.068 312.683 526.169C311.827 526.169 310.969 526.169 310.113 526.169C310.113 523.068 310.113 519.966 310.113 516.863ZM316.8 516.863C317.828 516.863 318.857 516.863 319.885 516.863C319.885 519.966 319.885 523.068 319.885 526.169C318.857 526.169 317.828 526.169 316.8 526.169C316.8 523.068 316.8 519.966 316.8 516.863ZM370.215 516.863H368.157V526.169H370.215V516.863ZM364.544 516.863C363.688 516.863 362.832 516.863 361.975 516.863C361.975 519.966 361.975 523.068 361.975 526.169C362.832 526.169 363.688 526.169 364.544 526.169C364.544 523.068 364.544 519.966 364.544 516.863ZM357.857 516.863C356.828 516.863 355.799 516.863 354.772 516.863C354.772 519.966 354.772 523.068 354.772 526.169C355.799 526.169 356.828 526.169 357.857 526.169C357.857 523.068 357.857 519.966 357.857 516.863ZM335.272 516.863V526.169H339.385V516.863H335.272ZM349.723 516.863C348.524 516.863 347.324 516.863 346.125 516.863C346.125 519.966 346.125 523.068 346.125 526.169C347.324 526.169 348.524 526.169 349.723 526.169C349.723 523.068 349.723 519.966 349.723 516.863ZM324.934 516.863C326.132 516.863 327.332 516.863 328.532 516.863C328.532 519.966 328.532 523.068 328.532 526.169C327.332 526.169 326.132 526.169 324.934 526.169C324.934 523.068 324.934 519.966 324.934 516.863Z" fill="#F48313"/>
<path fill-rule="evenodd" clip-rule="evenodd" d="M310.388 515.32H379.046V502.492H310.388V515.32Z" fill="#F9B00B"/>
<path fill-rule="evenodd" clip-rule="evenodd" d="M310.388 515.32H379.046V514.274H310.388V515.32Z" fill="#F8A10E"/>
<path fill-rule="evenodd" clip-rule="evenodd" d="M311.832 504.036H313.887V513.343H311.832V504.036ZM317.501 504.036C318.357 504.036 319.215 504.036 320.071 504.036C320.071 507.139 320.071 510.24 320.071 513.343C319.215 513.343 318.357 513.343 317.501 513.343C317.501 510.24 317.501 507.139 317.501 504.036ZM324.189 504.036C325.216 504.036 326.245 504.036 327.274 504.036C327.274 507.139 327.274 510.24 327.274 513.343C326.245 513.343 325.216 513.343 324.189 513.343C324.189 510.24 324.189 507.139 324.189 504.036ZM377.602 504.036H375.546V513.343H377.602V504.036ZM371.933 504.036C371.076 504.036 370.22 504.036 369.363 504.036C369.363 507.139 369.363 510.24 369.363 513.343C370.22 513.343 371.076 513.343 371.933 513.343C371.933 510.24 371.933 507.139 371.933 504.036ZM365.245 504.036C364.217 504.036 363.188 504.036 362.159 504.036C362.159 507.139 362.159 510.24 362.159 513.343C363.188 513.343 364.217 513.343 365.245 513.343C365.245 510.24 365.245 507.139 365.245 504.036ZM342.66 504.036V513.343H346.773V504.036H342.66ZM357.111 504.036C355.911 504.036 354.713 504.036 353.513 504.036C353.513 507.139 353.513 510.24 353.513 513.343C354.713 513.343 355.911 513.343 357.111 513.343C357.111 510.24 357.111 507.139 357.111 504.036ZM332.322 504.036C333.521 504.036 334.719 504.036 335.921 504.036C335.921 507.139 335.921 510.24 335.921 513.343C334.719 513.343 333.521 513.343 332.322 513.343C332.322 510.24 332.322 507.139 332.322 504.036Z" fill="#F48313"/>
<path fill-rule="evenodd" clip-rule="evenodd" d="M304.591 502.492H373.245V489.665H304.591V502.492Z" fill="#F9B00B"/>
<path fill-rule="evenodd" clip-rule="evenodd" d="M304.591 502.492H373.245V501.447H304.591V502.492Z" fill="#F8A10E"/>
<path fill-rule="evenodd" clip-rule="evenodd" d="M306.033 491.208H308.09V500.514H306.033V491.208ZM311.702 491.208C312.559 491.208 313.416 491.208 314.273 491.208C314.273 494.311 314.273 497.412 314.273 500.514C313.416 500.514 312.559 500.514 311.702 500.514C311.702 497.412 311.702 494.311 311.702 491.208ZM318.391 491.208C319.419 491.208 320.446 491.208 321.475 491.208C321.475 494.311 321.475 497.412 321.475 500.514C320.446 500.514 319.419 500.514 318.391 500.514C318.391 497.412 318.391 494.311 318.391 491.208ZM371.804 491.208H369.747V500.514H371.804V491.208ZM366.135 491.208C365.279 491.208 364.421 491.208 363.565 491.208C363.565 494.311 363.565 497.412 363.565 500.514C364.421 500.514 365.279 500.514 366.135 500.514C366.135 497.412 366.135 494.311 366.135 491.208ZM359.447 491.208C358.418 491.208 357.391 491.208 356.362 491.208C356.362 494.311 356.362 497.412 356.362 500.514C357.391 500.514 358.418 500.514 359.447 500.514C359.447 497.412 359.447 494.311 359.447 491.208ZM336.863 491.208V500.514H340.976V491.208H336.863ZM351.314 491.208C350.115 491.208 348.913 491.208 347.715 491.208C347.715 494.311 347.715 497.412 347.715 500.514C348.913 500.514 350.115 500.514 351.314 500.514C351.314 497.412 351.314 494.311 351.314 491.208ZM326.523 491.208C327.722 491.208 328.923 491.208 330.123 491.208C330.123 494.311 330.123 497.412 330.123 500.514C328.923 500.514 327.722 500.514 326.523 500.514C326.523 497.412 326.523 494.311 326.523 491.208Z" fill="#F48313"/>
<path fill-rule="evenodd" clip-rule="evenodd" d="M283.847 112.752C283.847 110.18 285.931 108.094 288.501 108.094C291.071 108.094 293.154 110.18 293.154 112.752V486.583C293.154 496.26 290.374 505.525 285.409 513.432C280.457 521.315 273.316 527.831 264.579 532.036C255.847 536.239 246.314 537.754 237.082 536.708C227.821 535.657 218.855 532.045 211.294 525.999V525.981C203.722 519.926 198.222 511.977 195.161 503.186C192.094 494.383 191.46 484.734 193.627 475.295C194.198 472.793 196.69 471.229 199.189 471.801C201.688 472.375 203.251 474.866 202.679 477.368C200.909 485.08 201.423 492.953 203.922 500.129C206.425 507.317 210.907 513.804 217.066 518.734L217.075 518.722C223.252 523.661 230.561 526.61 238.1 527.466C245.669 528.325 253.464 527.093 260.579 523.668C267.688 520.246 273.507 514.927 277.555 508.484C281.588 502.061 283.847 494.504 283.847 486.583V112.752Z" fill="#1B1919"/>
<path fill-rule="evenodd" clip-rule="evenodd" d="M288.501 120.335C393.562 120.335 483.291 185.982 519.007 278.524C502.306 260.813 478.636 249.757 452.379 249.757C416.524 249.757 385.484 270.379 370.439 300.416C355.398 270.379 324.359 249.757 288.501 249.757V120.335Z" fill="#47A2DD"/>
<path fill-rule="evenodd" clip-rule="evenodd" d="M288.501 249.756C252.644 249.756 221.604 270.378 206.561 300.416C191.518 270.378 160.477 249.756 124.621 249.756C98.3665 249.756 74.6951 260.812 57.9927 278.523C93.7094 185.981 183.44 120.334 288.501 120.334V249.756Z" fill="#60C3F0"/>
<path fill-rule="evenodd" clip-rule="evenodd" d="M370.504 300.294L370.439 300.415C355.398 270.378 324.358 249.756 288.501 249.756C252.644 249.756 221.604 270.378 206.561 300.416L206.499 300.294C216.597 196.446 249.484 120.334 288.501 120.334C327.518 120.334 360.405 196.446 370.504 300.294Z" fill="#52B5E9"/>
<path fill-rule="evenodd" clip-rule="evenodd" d="M9.53076 541.203H203.124V492.651H9.53076V541.203Z" fill="#968ECF"/>
<path fill-rule="evenodd" clip-rule="evenodd" d="M156.697 499.932C166.083 499.932 173.691 507.54 173.691 516.926C173.691 526.311 166.083 533.919 156.697 533.919C147.313 533.919 139.705 526.311 139.705 516.926C139.705 507.54 147.313 499.932 156.697 499.932ZM28.3442 502.512H111.79V531.339H28.3442V502.512Z" fill="#E5DFF2"/>
<path fill-rule="evenodd" clip-rule="evenodd" d="M156.699 530.429C164.136 530.429 170.201 524.362 170.201 516.925C170.201 509.487 164.136 503.422 156.699 503.422C149.261 503.422 143.195 509.487 143.195 516.925C143.195 524.362 149.261 530.429 156.699 530.429Z" fill="#48282A"/>
<path fill-rule="evenodd" clip-rule="evenodd" d="M15.4922 492.651H209.085V444.102H15.4922V492.651Z" fill="#F1485F"/>
<path fill-rule="evenodd" clip-rule="evenodd" d="M162.66 451.383C172.045 451.383 179.652 458.991 179.652 468.375C179.652 477.762 172.045 485.37 162.66 485.37C153.276 485.37 145.667 477.762 145.667 468.375C145.667 458.991 153.276 451.383 162.66 451.383ZM34.3063 453.963H117.751V482.79H34.3063V453.963Z" fill="#FAC2CC"/>
<path fill-rule="evenodd" clip-rule="evenodd" d="M162.661 481.878C170.099 481.878 176.164 475.814 176.164 468.375C176.164 460.938 170.099 454.873 162.661 454.873C155.224 454.873 149.159 460.938 149.159 468.375C149.159 475.814 155.224 481.878 162.661 481.878Z" fill="#48282A"/>
<path fill-rule="evenodd" clip-rule="evenodd" d="M0 444.102H193.592V395.551H0V444.102Z" fill="#FBC907"/>
<path fill-rule="evenodd" clip-rule="evenodd" d="M147.168 402.835C156.552 402.835 164.16 410.44 164.16 419.827C164.16 429.209 156.552 436.817 147.168 436.817C137.783 436.817 130.175 429.209 130.175 419.827C130.175 410.44 137.783 402.835 147.168 402.835ZM18.814 405.412H102.258V434.239H18.814V405.412Z" fill="#FBF889"/>
<path fill-rule="evenodd" clip-rule="evenodd" d="M147.168 433.33C154.605 433.33 160.671 427.263 160.671 419.825C160.671 412.39 154.605 406.321 147.168 406.321C139.731 406.321 133.665 412.39 133.665 419.825C133.665 427.263 139.731 433.33 147.168 433.33Z" fill="#48282A"/>
<path fill-rule="evenodd" clip-rule="evenodd" d="M9.53076 395.551H203.124V347H9.53076V395.551Z" fill="#7ACB38"/>
<path fill-rule="evenodd" clip-rule="evenodd" d="M156.697 354.285C166.083 354.285 173.691 361.893 173.691 371.278C173.691 380.662 166.083 388.268 156.697 388.268C147.313 388.268 139.705 380.662 139.705 371.278C139.705 361.893 147.313 354.285 156.697 354.285ZM28.3442 356.865H111.79V385.692H28.3442V356.865Z" fill="#D4EDAA"/>
<path fill-rule="evenodd" clip-rule="evenodd" d="M156.699 384.779C164.136 384.779 170.201 378.713 170.201 371.275C170.201 363.839 164.136 357.773 156.699 357.773C149.261 357.773 143.195 363.839 143.195 371.275C143.195 378.713 149.261 384.779 156.699 384.779Z" fill="#48282A"/>
<path fill-rule="evenodd" clip-rule="evenodd" d="M206.947 527.648C199.688 521.4 194.196 513.355 191.037 504.285C187.662 494.593 187.086 484.159 189.38 474.155C190.448 469.497 195.134 466.553 199.787 467.62C204.443 468.688 207.386 473.379 206.317 478.039C204.755 484.854 205.138 491.958 207.437 498.562C209.624 504.84 213.439 510.405 218.501 514.689L219.296 515.323C224.752 519.687 231.312 522.421 238.252 523.208C245.2 523.996 252.219 522.821 258.523 519.785C264.817 516.755 270.112 512.008 273.827 506.094C277.544 500.177 279.498 493.337 279.498 486.348V441H296.895V486.348C296.895 496.618 293.987 506.659 288.528 515.351C283.069 524.045 275.273 530.999 266.028 535.45C256.792 539.895 246.507 541.65 236.323 540.495C226.13 539.337 216.482 535.337 208.466 528.928L206.947 527.712V527.648Z" fill="#52B5E9"/>
<path fill-rule="evenodd" clip-rule="evenodd" d="M833.18 331.778L801.687 336.058L800.963 342.854L803.526 346.349C811.7 357.502 826.644 361.278 839.135 355.345L833.18 331.778Z" fill="#E5691A"/>
<path fill-rule="evenodd" clip-rule="evenodd" d="M806.98 350.264C815.487 358.31 828.243 360.518 839.135 355.345L834.558 337.227C833.09 342.597 829.443 347.159 824.442 349.756C818.99 352.587 812.558 352.762 806.98 350.264Z" fill="#DB611C"/>
<path fill-rule="evenodd" clip-rule="evenodd" d="M881.14 321.58C877.663 322.054 874.548 324.056 872.209 326.986L835.925 331.733L839.469 357.819L882.577 356.135C890.297 355.085 896.232 346.5 895.834 336.959C895.438 327.415 888.86 320.531 881.14 321.58Z" fill="#52B5E9"/>
<path fill-rule="evenodd" clip-rule="evenodd" d="M833.001 329.715L835.582 359.231L836.015 359.173L851.225 360.396L850.405 349.067L842.206 349.381L850.193 346.136L848.848 327.562L833.001 329.715Z" fill="#62C6FA"/>
<path fill-rule="evenodd" clip-rule="evenodd" d="M808.569 336.759L808.721 326.307C808.759 323.491 806.784 321.407 804.06 321.395C802.672 321.39 801.273 321.451 799.869 321.581C797.801 321.772 795.723 322.371 793.744 323.347C792.696 323.865 791.889 324.863 791.612 325.993C791.333 327.124 791.618 328.225 792.37 328.913L792.528 339.873C792.564 342.43 794.44 344.253 796.941 344.161L800.632 347.502C801.758 348.521 803.37 348.868 805.003 348.444C806.639 348.018 808.12 346.867 809.025 345.318L808.569 336.759Z" fill="#E5691A"/>
<path fill-rule="evenodd" clip-rule="evenodd" d="M873.02 275.392L868.791 287.904C864.974 299.2 867.094 305.882 868.791 308.307H877.281L879.645 318.862L892.593 306.51L891.641 302.974L900.89 281.321L873.02 275.392Z" fill="#F68B27"/>
<path fill-rule="evenodd" clip-rule="evenodd" d="M840.672 318.153H808.891L807.259 324.79L809.327 328.598C815.923 340.749 830.221 346.505 843.396 342.309L840.672 318.153Z" fill="#F68B27"/>
<path fill-rule="evenodd" clip-rule="evenodd" d="M812.222 332.943C819.567 342.059 831.908 345.967 843.396 342.309L841.302 323.738C839.126 328.862 834.896 332.89 829.591 334.79C823.81 336.861 817.413 336.169 812.222 332.943Z" fill="#EF7916"/>
<path fill-rule="evenodd" clip-rule="evenodd" d="M889.611 523.307C885.173 527.933 882.147 528.334 880.373 533.183C879.35 535.979 879.922 539.118 881.386 541.711H922.625L921.168 537.684V534.841L908.479 512.673L891.722 519.965L889.611 523.307Z" fill="#96414B"/>
<path fill-rule="evenodd" clip-rule="evenodd" d="M966.988 523.307C962.546 527.933 959.522 528.334 957.748 533.183C956.725 535.979 957.295 539.118 958.761 541.711H1000L998.541 537.684V534.841L985.856 512.673L969.097 519.965L966.988 523.307Z" fill="#96414B"/>
<path fill-rule="evenodd" clip-rule="evenodd" d="M923.264 424.633L894.086 409.711L872.87 462.048C870.231 468.556 874.995 479.66 877.981 485.333L894.086 515.908L891.722 519.965C900.844 518.605 915.026 527.554 921.168 534.841C921.295 514.566 912.445 488.052 900.85 471.421L898.782 468.454L923.264 424.633Z" fill="#2E2D2D"/>
<path fill-rule="evenodd" clip-rule="evenodd" d="M923.264 424.633L894.086 409.711L891.722 415.546C902.269 442.158 899.351 472.286 883.817 496.408L894.086 515.908L891.722 519.965C900.844 518.605 915.026 527.554 921.168 534.841C921.295 514.566 912.445 488.052 900.85 471.421L898.782 468.454L923.264 424.633Z" fill="#1B1919"/>
<path fill-rule="evenodd" clip-rule="evenodd" d="M927.708 391.106L934.479 395.877C944 402.583 944.706 410.794 944.139 418.199L966.335 464.55L971.339 469.555C979.512 477.727 985.626 487.721 989.187 498.717C993.016 510.562 996.142 522.625 998.541 534.841L995.058 531.793C987.36 525.056 977.13 521.965 966.988 523.307L966.552 515.908L950.666 482.831L947.838 480.873C944.243 478.384 941.446 474.907 939.786 470.862L913.236 424.945L894.086 409.711L889.733 402.747L924.88 384.359L927.708 391.106Z" fill="#2E2D2D"/>
<path fill-rule="evenodd" clip-rule="evenodd" d="M950.666 482.831L951.919 482.831C955.939 482.838 959.912 481.964 963.562 480.276L963.395 482.344C963.013 487.196 960.24 491.542 955.995 493.931L950.666 482.831Z" fill="#1B1919"/>
<path fill-rule="evenodd" clip-rule="evenodd" d="M791.693 197.246L840.532 212.495L737.734 541.711L688.897 526.463L791.693 197.246Z" fill="#2E2D2D"/>
<path fill-rule="evenodd" clip-rule="evenodd" d="M892.97 303.682L894.276 308.143L902.226 317.5C911.437 328.346 916.288 342.23 915.835 356.452L933.897 388.931L925.193 397.149C919.836 402.202 914.118 406.859 908.083 411.074C903.819 414.053 898.399 414.849 893.46 413.221C888.516 411.596 884.634 407.735 882.975 402.806C879.459 392.363 875.212 382.183 870.263 372.34L865.784 363.853C861.262 355.285 860.248 345.298 862.956 335.998C867.532 320.269 877.775 309.797 892.97 303.682Z" fill="#52B5E9"/>
<path fill-rule="evenodd" clip-rule="evenodd" d="M877.632 388.499C875.38 383.022 872.923 377.631 870.263 372.34L865.784 363.853C861.944 356.575 860.632 348.272 861.986 340.236L894.429 339.48L886.34 348.942C872.352 352.389 870.108 369.029 877.632 388.499Z" fill="#52B5E9"/>
<path fill-rule="evenodd" clip-rule="evenodd" d="M889.569 314.508C886.059 314.508 882.702 316.073 879.991 318.662L843.396 318.479V344.805L886.34 348.942C894.131 348.942 901.17 341.232 902.062 331.725C902.95 322.216 897.36 314.508 889.569 314.508Z" fill="#52B5E9"/>
<path fill-rule="evenodd" clip-rule="evenodd" d="M840.77 316.085L839.358 345.682H839.793L854.699 348.941L855.412 337.607L847.247 336.814L855.596 334.673L856.767 316.085H840.77Z" fill="#62C6FA"/>
<path fill-rule="evenodd" clip-rule="evenodd" d="M815.616 319.776L817.171 309.439C817.59 306.652 815.912 304.322 813.216 303.944C811.842 303.751 810.446 303.625 809.038 303.564C806.963 303.474 804.822 303.788 802.731 304.488C801.624 304.86 800.689 305.742 800.263 306.824C799.833 307.906 799.969 309.036 800.621 309.82L799.298 320.701C798.992 323.238 800.606 325.3 803.095 325.542L806.303 329.351C807.282 330.513 808.831 331.074 810.507 330.873C812.185 330.67 813.811 329.73 814.913 328.317L815.616 319.776Z" fill="#F68B27"/>
<path fill-rule="evenodd" clip-rule="evenodd" d="M888.813 301.859L889.141 292.121L883.77 290.652L886.418 286.136C887.001 285.149 887.024 283.929 886.483 282.919C885.942 281.909 884.914 281.252 883.77 281.186L871.338 280.368L870.861 275.391C870.475 271.392 872.555 267.559 876.117 265.701C879.678 263.843 884.012 264.329 887.073 266.933L900.89 270.523C903.715 271.257 905.448 274.096 904.807 276.942L905.46 279.336C906.285 282.363 905.813 285.596 904.155 288.258C900.732 293.754 896.516 298.714 891.641 302.974L888.813 301.859Z" fill="#2E2D2D"/>
<path fill-rule="evenodd" clip-rule="evenodd" d="M891.783 287.769C893.329 288.449 893.6 291.234 892.388 293.991C891.175 296.747 888.941 298.431 887.394 297.75C885.85 297.071 885.58 294.286 886.791 291.53C888.004 288.773 890.239 287.089 891.783 287.769Z" fill="#F68B27"/>
<path fill-rule="evenodd" clip-rule="evenodd" d="M729.811 234.267L770.898 264.758L565.358 541.711L524.272 511.218L729.811 234.267Z" fill="#2E2D2D"/>
<path fill-rule="evenodd" clip-rule="evenodd" d="M805.738 330.302L795.629 328.822C794.304 328.627 793.062 329.52 792.826 330.838C792.588 332.156 793.439 333.424 794.747 333.705L797.589 334.184L798.023 335.626C798.853 338.397 801.558 340.169 804.433 339.827L805.738 330.302Z" fill="#E5691A"/>
<path fill-rule="evenodd" clip-rule="evenodd" d="M876.195 299.287C876.195 301.088 874.736 302.549 872.933 302.549C871.134 302.549 869.673 301.088 869.673 299.287H876.195Z" fill="white"/>
<path d="M510.086 116L502.488 87.3672H506.375L510.73 106.137C511.199 108.103 511.603 110.056 511.941 111.996C512.671 108.936 513.1 107.172 513.23 106.703L518.68 87.3672H523.25L527.352 101.859C528.38 105.453 529.122 108.832 529.578 111.996C529.943 110.186 530.418 108.109 531.004 105.766L535.496 87.3672H539.305L531.453 116H527.801L521.766 94.1836C521.258 92.3607 520.958 91.2409 520.867 90.8242C520.568 92.1393 520.288 93.2591 520.027 94.1836L513.953 116H510.086Z" fill="black"/>
<path d="M555.867 109.32L559.5 109.77C558.927 111.892 557.866 113.539 556.316 114.711C554.767 115.883 552.788 116.469 550.379 116.469C547.345 116.469 544.936 115.538 543.152 113.676C541.382 111.801 540.496 109.177 540.496 105.805C540.496 102.315 541.395 99.6068 543.191 97.6797C544.988 95.7526 547.319 94.7891 550.184 94.7891C552.957 94.7891 555.223 95.7331 556.98 97.6211C558.738 99.5091 559.617 102.165 559.617 105.59C559.617 105.798 559.611 106.111 559.598 106.527H544.129C544.259 108.806 544.904 110.551 546.062 111.762C547.221 112.973 548.667 113.578 550.398 113.578C551.688 113.578 552.788 113.24 553.699 112.562C554.611 111.885 555.333 110.805 555.867 109.32ZM544.324 103.637H555.906C555.75 101.892 555.307 100.583 554.578 99.7109C553.458 98.3568 552.007 97.6797 550.223 97.6797C548.608 97.6797 547.247 98.2201 546.141 99.3008C545.047 100.382 544.441 101.827 544.324 103.637Z" fill="black"/>
<path d="M563.719 91.1562V87.0742H567.488V90.2969C567.488 92.0417 567.286 93.2982 566.883 94.0664C566.323 95.1211 565.451 95.9154 564.266 96.4492L563.406 95.0625C564.109 94.776 564.63 94.3268 564.969 93.7148C565.32 93.0898 565.516 92.237 565.555 91.1562H563.719Z" fill="black"/>
<path d="M572.762 116V87.3672H576.277V116H572.762Z" fill="black"/>
<path d="M581.668 116V87.3672H585.184V116H581.668Z" fill="black"/>
<path d="M601.785 116V87.3672H605.301V97.6406C606.941 95.7396 609.012 94.7891 611.512 94.7891C613.048 94.7891 614.383 95.0951 615.516 95.707C616.648 96.306 617.456 97.1393 617.938 98.207C618.432 99.2747 618.68 100.824 618.68 102.855V116H615.164V102.855C615.164 101.098 614.78 99.8216 614.012 99.0273C613.257 98.2201 612.182 97.8164 610.789 97.8164C609.747 97.8164 608.764 98.0898 607.84 98.6367C606.928 99.1706 606.277 99.8997 605.887 100.824C605.496 101.749 605.301 103.025 605.301 104.652V116H601.785Z" fill="black"/>
<path d="M638.25 109.32L641.883 109.77C641.31 111.892 640.249 113.539 638.699 114.711C637.15 115.883 635.171 116.469 632.762 116.469C629.728 116.469 627.319 115.538 625.535 113.676C623.764 111.801 622.879 109.177 622.879 105.805C622.879 102.315 623.777 99.6068 625.574 97.6797C627.371 95.7526 629.702 94.7891 632.566 94.7891C635.34 94.7891 637.605 95.7331 639.363 97.6211C641.121 99.5091 642 102.165 642 105.59C642 105.798 641.993 106.111 641.98 106.527H626.512C626.642 108.806 627.286 110.551 628.445 111.762C629.604 112.973 631.049 113.578 632.781 113.578C634.07 113.578 635.171 113.24 636.082 112.562C636.993 111.885 637.716 110.805 638.25 109.32ZM626.707 103.637H638.289C638.133 101.892 637.69 100.583 636.961 99.7109C635.841 98.3568 634.389 97.6797 632.605 97.6797C630.991 97.6797 629.63 98.2201 628.523 99.3008C627.43 100.382 626.824 101.827 626.707 103.637Z" fill="black"/>
<path d="M646.238 116V87.3672H649.754V116H646.238Z" fill="black"/>
<path d="M655.223 123.949V95.2578H658.426V97.9531C659.181 96.8984 660.034 96.1107 660.984 95.5898C661.935 95.056 663.087 94.7891 664.441 94.7891C666.212 94.7891 667.775 95.2448 669.129 96.1562C670.483 97.0677 671.505 98.3568 672.195 100.023C672.885 101.677 673.23 103.493 673.23 105.473C673.23 107.595 672.846 109.509 672.078 111.215C671.323 112.908 670.216 114.21 668.758 115.121C667.312 116.02 665.789 116.469 664.188 116.469C663.016 116.469 661.961 116.221 661.023 115.727C660.099 115.232 659.337 114.607 658.738 113.852V123.949H655.223ZM658.406 105.746C658.406 108.415 658.947 110.388 660.027 111.664C661.108 112.94 662.417 113.578 663.953 113.578C665.516 113.578 666.85 112.921 667.957 111.605C669.077 110.277 669.637 108.227 669.637 105.453C669.637 102.81 669.09 100.831 667.996 99.5156C666.915 98.2005 665.62 97.543 664.109 97.543C662.612 97.543 661.284 98.2461 660.125 99.6523C658.979 101.046 658.406 103.077 658.406 105.746Z" fill="black"/>
<path d="M688.465 123.988L688.074 120.688C688.842 120.896 689.513 121 690.086 121C690.867 121 691.492 120.87 691.961 120.609C692.43 120.349 692.814 119.984 693.113 119.516C693.335 119.164 693.693 118.292 694.188 116.898C694.253 116.703 694.357 116.417 694.5 116.039L686.629 95.2578H690.418L694.734 107.27C695.294 108.793 695.796 110.395 696.238 112.074C696.642 110.46 697.124 108.884 697.684 107.348L702.117 95.2578H705.633L697.742 116.352C696.896 118.63 696.238 120.199 695.77 121.059C695.145 122.217 694.428 123.064 693.621 123.598C692.814 124.145 691.85 124.418 690.73 124.418C690.053 124.418 689.298 124.275 688.465 123.988Z" fill="black"/>
<path d="M707.312 105.629C707.312 101.788 708.38 98.9427 710.516 97.0938C712.299 95.5573 714.474 94.7891 717.039 94.7891C719.891 94.7891 722.221 95.7266 724.031 97.6016C725.841 99.4635 726.746 102.042 726.746 105.336C726.746 108.005 726.342 110.108 725.535 111.645C724.741 113.168 723.576 114.353 722.039 115.199C720.516 116.046 718.849 116.469 717.039 116.469C714.135 116.469 711.785 115.538 709.988 113.676C708.204 111.814 707.312 109.132 707.312 105.629ZM710.926 105.629C710.926 108.285 711.505 110.277 712.664 111.605C713.823 112.921 715.281 113.578 717.039 113.578C718.784 113.578 720.236 112.914 721.395 111.586C722.553 110.258 723.133 108.233 723.133 105.512C723.133 102.947 722.547 101.007 721.375 99.6914C720.216 98.3633 718.771 97.6992 717.039 97.6992C715.281 97.6992 713.823 98.3568 712.664 99.6719C711.505 100.987 710.926 102.973 710.926 105.629Z" fill="black"/>
<path d="M744.48 116V112.953C742.866 115.297 740.672 116.469 737.898 116.469C736.674 116.469 735.529 116.234 734.461 115.766C733.406 115.297 732.618 114.711 732.098 114.008C731.59 113.292 731.232 112.419 731.023 111.391C730.88 110.701 730.809 109.607 730.809 108.109V95.2578H734.324V106.762C734.324 108.598 734.396 109.835 734.539 110.473C734.76 111.397 735.229 112.126 735.945 112.66C736.661 113.181 737.547 113.441 738.602 113.441C739.656 113.441 740.646 113.174 741.57 112.641C742.495 112.094 743.146 111.358 743.523 110.434C743.914 109.496 744.109 108.142 744.109 106.371V95.2578H747.625V116H744.48Z" fill="black"/>
<path d="M768.113 116L761.766 95.2578H765.398L769.93 111.684C769.982 111.462 770.34 110.036 771.004 107.406L774.305 95.2578H777.918L781.023 107.289L782.059 111.254L783.25 107.25L786.805 95.2578H790.223L783.738 116H780.086L776.785 103.578L775.984 100.043L771.785 116H768.113Z" fill="black"/>
<path d="M793.211 91.4102V87.3672H796.727V91.4102H793.211ZM793.211 116V95.2578H796.727V116H793.211Z" fill="black"/>
<path d="M809.773 112.855L810.281 115.961C809.292 116.169 808.406 116.273 807.625 116.273C806.349 116.273 805.359 116.072 804.656 115.668C803.953 115.264 803.458 114.737 803.172 114.086C802.885 113.422 802.742 112.035 802.742 109.926V97.9922H800.164V95.2578H802.742V90.1211L806.238 88.0117V95.2578H809.773V97.9922H806.238V110.121C806.238 111.124 806.297 111.768 806.414 112.055C806.544 112.341 806.746 112.569 807.02 112.738C807.306 112.908 807.71 112.992 808.23 112.992C808.621 112.992 809.135 112.947 809.773 112.855Z" fill="black"/>
<path d="M813.23 116V87.3672H816.746V97.6406C818.387 95.7396 820.457 94.7891 822.957 94.7891C824.493 94.7891 825.828 95.0951 826.961 95.707C828.094 96.306 828.901 97.1393 829.383 98.207C829.878 99.2747 830.125 100.824 830.125 102.855V116H826.609V102.855C826.609 101.098 826.225 99.8216 825.457 99.0273C824.702 98.2201 823.628 97.8164 822.234 97.8164C821.193 97.8164 820.21 98.0898 819.285 98.6367C818.374 99.1706 817.723 99.8997 817.332 100.824C816.941 101.749 816.746 103.025 816.746 104.652V116H813.23Z" fill="black"/>
<path d="M860.828 109.32L864.461 109.77C863.888 111.892 862.827 113.539 861.277 114.711C859.728 115.883 857.749 116.469 855.34 116.469C852.306 116.469 849.897 115.538 848.113 113.676C846.342 111.801 845.457 109.177 845.457 105.805C845.457 102.315 846.355 99.6068 848.152 97.6797C849.949 95.7526 852.28 94.7891 855.145 94.7891C857.918 94.7891 860.184 95.7331 861.941 97.6211C863.699 99.5091 864.578 102.165 864.578 105.59C864.578 105.798 864.572 106.111 864.559 106.527H849.09C849.22 108.806 849.865 110.551 851.023 111.762C852.182 112.973 853.628 113.578 855.359 113.578C856.648 113.578 857.749 113.24 858.66 112.562C859.572 111.885 860.294 110.805 860.828 109.32ZM849.285 103.637H860.867C860.711 101.892 860.268 100.583 859.539 99.7109C858.419 98.3568 856.967 97.6797 855.184 97.6797C853.569 97.6797 852.208 98.2201 851.102 99.3008C850.008 100.382 849.402 101.827 849.285 103.637Z" fill="black"/>
<path d="M874.656 116L866.766 95.2578H870.477L874.93 107.68C875.411 109.021 875.854 110.414 876.258 111.859C876.57 110.766 877.007 109.451 877.566 107.914L882.176 95.2578H885.789L877.938 116H874.656Z" fill="black"/>
<path d="M903.094 109.32L906.727 109.77C906.154 111.892 905.092 113.539 903.543 114.711C901.993 115.883 900.014 116.469 897.605 116.469C894.572 116.469 892.163 115.538 890.379 113.676C888.608 111.801 887.723 109.177 887.723 105.805C887.723 102.315 888.621 99.6068 890.418 97.6797C892.215 95.7526 894.546 94.7891 897.41 94.7891C900.184 94.7891 902.449 95.7331 904.207 97.6211C905.965 99.5091 906.844 102.165 906.844 105.59C906.844 105.798 906.837 106.111 906.824 106.527H891.355C891.486 108.806 892.13 110.551 893.289 111.762C894.448 112.973 895.893 113.578 897.625 113.578C898.914 113.578 900.014 113.24 900.926 112.562C901.837 111.885 902.56 110.805 903.094 109.32ZM891.551 103.637H903.133C902.977 101.892 902.534 100.583 901.805 99.7109C900.685 98.3568 899.233 97.6797 897.449 97.6797C895.835 97.6797 894.474 98.2201 893.367 99.3008C892.273 100.382 891.668 101.827 891.551 103.637Z" fill="black"/>
<path d="M911.121 116V95.2578H914.285V98.4023C915.092 96.931 915.835 95.9609 916.512 95.4922C917.202 95.0234 917.957 94.7891 918.777 94.7891C919.962 94.7891 921.167 95.1667 922.391 95.9219L921.18 99.1836C920.32 98.6758 919.461 98.4219 918.602 98.4219C917.833 98.4219 917.143 98.6562 916.531 99.125C915.919 99.5807 915.483 100.219 915.223 101.039C914.832 102.289 914.637 103.656 914.637 105.141V116H911.121Z" fill="black"/>
<path d="M924.324 123.988L923.934 120.688C924.702 120.896 925.372 121 925.945 121C926.727 121 927.352 120.87 927.82 120.609C928.289 120.349 928.673 119.984 928.973 119.516C929.194 119.164 929.552 118.292 930.047 116.898C930.112 116.703 930.216 116.417 930.359 116.039L922.488 95.2578H926.277L930.594 107.27C931.154 108.793 931.655 110.395 932.098 112.074C932.501 110.46 932.983 108.884 933.543 107.348L937.977 95.2578H941.492L933.602 116.352C932.755 118.63 932.098 120.199 931.629 121.059C931.004 122.217 930.288 123.064 929.48 123.598C928.673 124.145 927.71 124.418 926.59 124.418C925.913 124.418 925.158 124.275 924.324 123.988Z" fill="black"/>
<path d="M954.207 109.809L957.684 109.262C957.879 110.655 958.419 111.723 959.305 112.465C960.203 113.207 961.453 113.578 963.055 113.578C964.669 113.578 965.867 113.253 966.648 112.602C967.43 111.938 967.82 111.163 967.82 110.277C967.82 109.483 967.475 108.858 966.785 108.402C966.303 108.09 965.105 107.693 963.191 107.211C960.613 106.56 958.823 106 957.82 105.531C956.831 105.049 956.076 104.392 955.555 103.559C955.047 102.712 954.793 101.781 954.793 100.766C954.793 99.8411 955.001 98.9883 955.418 98.207C955.848 97.4128 956.427 96.7552 957.156 96.2344C957.703 95.8307 958.445 95.4922 959.383 95.2188C960.333 94.9323 961.349 94.7891 962.43 94.7891C964.057 94.7891 965.483 95.0234 966.707 95.4922C967.944 95.9609 968.855 96.599 969.441 97.4062C970.027 98.2005 970.431 99.2682 970.652 100.609L967.215 101.078C967.059 100.01 966.603 99.1771 965.848 98.5781C965.105 97.9792 964.051 97.6797 962.684 97.6797C961.069 97.6797 959.917 97.9466 959.227 98.4805C958.536 99.0143 958.191 99.6393 958.191 100.355C958.191 100.811 958.335 101.221 958.621 101.586C958.908 101.964 959.357 102.276 959.969 102.523C960.32 102.654 961.355 102.953 963.074 103.422C965.561 104.086 967.293 104.633 968.27 105.062C969.259 105.479 970.034 106.091 970.594 106.898C971.154 107.706 971.434 108.708 971.434 109.906C971.434 111.078 971.089 112.185 970.398 113.227C969.721 114.255 968.738 115.056 967.449 115.629C966.16 116.189 964.702 116.469 963.074 116.469C960.379 116.469 958.322 115.909 956.902 114.789C955.496 113.669 954.598 112.009 954.207 109.809Z" fill="black"/>
<path d="M983.289 112.855L983.797 115.961C982.807 116.169 981.922 116.273 981.141 116.273C979.865 116.273 978.875 116.072 978.172 115.668C977.469 115.264 976.974 114.737 976.688 114.086C976.401 113.422 976.258 112.035 976.258 109.926V97.9922H973.68V95.2578H976.258V90.1211L979.754 88.0117V95.2578H983.289V97.9922H979.754V110.121C979.754 111.124 979.812 111.768 979.93 112.055C980.06 112.341 980.262 112.569 980.535 112.738C980.822 112.908 981.225 112.992 981.746 112.992C982.137 112.992 982.651 112.947 983.289 112.855Z" fill="black"/>
<path d="M1000.95 109.32L1004.58 109.77C1004.01 111.892 1002.94 113.539 1001.39 114.711C999.845 115.883 997.866 116.469 995.457 116.469C992.423 116.469 990.014 115.538 988.23 113.676C986.46 111.801 985.574 109.177 985.574 105.805C985.574 102.315 986.473 99.6068 988.27 97.6797C990.066 95.7526 992.397 94.7891 995.262 94.7891C998.035 94.7891 1000.3 95.7331 1002.06 97.6211C1003.82 99.5091 1004.7 102.165 1004.7 105.59C1004.7 105.798 1004.69 106.111 1004.68 106.527H989.207C989.337 108.806 989.982 110.551 991.141 111.762C992.299 112.973 993.745 113.578 995.477 113.578C996.766 113.578 997.866 113.24 998.777 112.562C999.689 111.885 1000.41 110.805 1000.95 109.32ZM989.402 103.637H1000.98C1000.83 101.892 1000.39 100.583 999.656 99.7109C998.536 98.3568 997.085 97.6797 995.301 97.6797C993.686 97.6797 992.326 98.2201 991.219 99.3008C990.125 100.382 989.52 101.827 989.402 103.637Z" fill="black"/>
<path d="M1009.01 123.949V95.2578H1012.21V97.9531C1012.97 96.8984 1013.82 96.1107 1014.77 95.5898C1015.72 95.056 1016.88 94.7891 1018.23 94.7891C1020 94.7891 1021.56 95.2448 1022.92 96.1562C1024.27 97.0677 1025.29 98.3568 1025.98 100.023C1026.67 101.677 1027.02 103.493 1027.02 105.473C1027.02 107.595 1026.64 109.509 1025.87 111.215C1025.11 112.908 1024.01 114.21 1022.55 115.121C1021.1 116.02 1019.58 116.469 1017.98 116.469C1016.8 116.469 1015.75 116.221 1014.81 115.727C1013.89 115.232 1013.13 114.607 1012.53 113.852V123.949H1009.01ZM1012.2 105.746C1012.2 108.415 1012.74 110.388 1013.82 111.664C1014.9 112.94 1016.21 113.578 1017.74 113.578C1019.3 113.578 1020.64 112.921 1021.75 111.605C1022.87 110.277 1023.43 108.227 1023.43 105.453C1023.43 102.81 1022.88 100.831 1021.79 99.5156C1020.7 98.2005 1019.41 97.543 1017.9 97.543C1016.4 97.543 1015.07 98.2461 1013.91 99.6523C1012.77 101.046 1012.2 103.077 1012.2 105.746Z" fill="black"/>
<path d="M1041.1 105.629C1041.1 101.788 1042.17 98.9427 1044.3 97.0938C1046.09 95.5573 1048.26 94.7891 1050.83 94.7891C1053.68 94.7891 1056.01 95.7266 1057.82 97.6016C1059.63 99.4635 1060.54 102.042 1060.54 105.336C1060.54 108.005 1060.13 110.108 1059.32 111.645C1058.53 113.168 1057.36 114.353 1055.83 115.199C1054.3 116.046 1052.64 116.469 1050.83 116.469C1047.92 116.469 1045.57 115.538 1043.78 113.676C1041.99 111.814 1041.1 109.132 1041.1 105.629ZM1044.71 105.629C1044.71 108.285 1045.29 110.277 1046.45 111.605C1047.61 112.921 1049.07 113.578 1050.83 113.578C1052.57 113.578 1054.02 112.914 1055.18 111.586C1056.34 110.258 1056.92 108.233 1056.92 105.512C1056.92 102.947 1056.34 101.007 1055.16 99.6914C1054.01 98.3633 1052.56 97.6992 1050.83 97.6992C1049.07 97.6992 1047.61 98.3568 1046.45 99.6719C1045.29 100.987 1044.71 102.973 1044.71 105.629Z" fill="black"/>
<path d="M1064.68 116V95.2578H1067.84V98.207C1069.36 95.9284 1071.56 94.7891 1074.44 94.7891C1075.69 94.7891 1076.84 95.0169 1077.88 95.4727C1078.93 95.9154 1079.72 96.5013 1080.24 97.2305C1080.76 97.9596 1081.13 98.8255 1081.34 99.8281C1081.47 100.479 1081.53 101.618 1081.53 103.246V116H1078.02V103.383C1078.02 101.951 1077.88 100.883 1077.61 100.18C1077.33 99.4635 1076.84 98.8971 1076.14 98.4805C1075.45 98.0508 1074.64 97.8359 1073.7 97.8359C1072.2 97.8359 1070.91 98.3112 1069.81 99.2617C1068.73 100.212 1068.19 102.016 1068.19 104.672V116H1064.68Z" fill="black"/>
<path d="M1105.75 112.855L1106.26 115.961C1105.27 116.169 1104.38 116.273 1103.6 116.273C1102.33 116.273 1101.34 116.072 1100.63 115.668C1099.93 115.264 1099.43 114.737 1099.15 114.086C1098.86 113.422 1098.72 112.035 1098.72 109.926V97.9922H1096.14V95.2578H1098.72V90.1211L1102.21 88.0117V95.2578H1105.75V97.9922H1102.21V110.121C1102.21 111.124 1102.27 111.768 1102.39 112.055C1102.52 112.341 1102.72 112.569 1103 112.738C1103.28 112.908 1103.69 112.992 1104.21 112.992C1104.6 112.992 1105.11 112.947 1105.75 112.855Z" fill="black"/>
<path d="M1109.21 116V87.3672H1112.72V97.6406C1114.36 95.7396 1116.43 94.7891 1118.93 94.7891C1120.47 94.7891 1121.8 95.0951 1122.94 95.707C1124.07 96.306 1124.88 97.1393 1125.36 98.207C1125.85 99.2747 1126.1 100.824 1126.1 102.855V116H1122.59V102.855C1122.59 101.098 1122.2 99.8216 1121.43 99.0273C1120.68 98.2201 1119.6 97.8164 1118.21 97.8164C1117.17 97.8164 1116.19 98.0898 1115.26 98.6367C1114.35 99.1706 1113.7 99.8997 1113.31 100.824C1112.92 101.749 1112.72 103.025 1112.72 104.652V116H1109.21Z" fill="black"/>
<path d="M1145.67 109.32L1149.3 109.77C1148.73 111.892 1147.67 113.539 1146.12 114.711C1144.57 115.883 1142.59 116.469 1140.18 116.469C1137.15 116.469 1134.74 115.538 1132.96 113.676C1131.19 111.801 1130.3 109.177 1130.3 105.805C1130.3 102.315 1131.2 99.6068 1133 97.6797C1134.79 95.7526 1137.12 94.7891 1139.99 94.7891C1142.76 94.7891 1145.03 95.7331 1146.79 97.6211C1148.54 99.5091 1149.42 102.165 1149.42 105.59C1149.42 105.798 1149.42 106.111 1149.4 106.527H1133.93C1134.06 108.806 1134.71 110.551 1135.87 111.762C1137.03 112.973 1138.47 113.578 1140.2 113.578C1141.49 113.578 1142.59 113.24 1143.5 112.562C1144.42 111.885 1145.14 110.805 1145.67 109.32ZM1134.13 103.637H1145.71C1145.55 101.892 1145.11 100.583 1144.38 99.7109C1143.26 98.3568 1141.81 97.6797 1140.03 97.6797C1138.41 97.6797 1137.05 98.2201 1135.95 99.3008C1134.85 100.382 1134.25 101.827 1134.13 103.637Z" fill="black"/>
<path d="M1168.7 116L1162.35 95.2578H1165.98L1170.52 111.684C1170.57 111.462 1170.93 110.036 1171.59 107.406L1174.89 95.2578H1178.5L1181.61 107.289L1182.64 111.254L1183.84 107.25L1187.39 95.2578H1190.81L1184.32 116H1180.67L1177.37 103.578L1176.57 100.043L1172.37 116H1168.7Z" fill="black"/>
<path d="M1207.31 113.441C1206.01 114.548 1204.75 115.329 1203.54 115.785C1202.35 116.241 1201.06 116.469 1199.68 116.469C1197.4 116.469 1195.65 115.915 1194.42 114.809C1193.2 113.689 1192.59 112.263 1192.59 110.531C1192.59 109.516 1192.81 108.591 1193.27 107.758C1193.74 106.911 1194.34 106.234 1195.09 105.727C1195.84 105.219 1196.69 104.835 1197.62 104.574C1198.32 104.392 1199.36 104.216 1200.75 104.047C1203.59 103.708 1205.68 103.305 1207.02 102.836C1207.03 102.354 1207.04 102.048 1207.04 101.918C1207.04 100.486 1206.71 99.4766 1206.04 98.8906C1205.14 98.0964 1203.81 97.6992 1202.04 97.6992C1200.39 97.6992 1199.16 97.9922 1198.37 98.5781C1197.59 99.151 1197.01 100.173 1196.63 101.645L1193.19 101.176C1193.5 99.7044 1194.02 98.5195 1194.73 97.6211C1195.45 96.7096 1196.49 96.013 1197.84 95.5312C1199.19 95.0365 1200.76 94.7891 1202.55 94.7891C1204.32 94.7891 1205.76 94.9974 1206.86 95.4141C1207.97 95.8307 1208.78 96.3581 1209.3 96.9961C1209.83 97.6211 1210.19 98.4154 1210.4 99.3789C1210.52 99.9779 1210.57 101.059 1210.57 102.621V107.309C1210.57 110.577 1210.65 112.647 1210.79 113.52C1210.95 114.379 1211.24 115.206 1211.69 116H1208.02C1207.65 115.271 1207.42 114.418 1207.31 113.441ZM1207.02 105.59C1205.74 106.111 1203.83 106.553 1201.28 106.918C1199.83 107.126 1198.81 107.361 1198.21 107.621C1197.61 107.882 1197.15 108.266 1196.82 108.773C1196.5 109.268 1196.34 109.822 1196.34 110.434C1196.34 111.371 1196.69 112.152 1197.39 112.777C1198.11 113.402 1199.15 113.715 1200.52 113.715C1201.87 113.715 1203.07 113.422 1204.13 112.836C1205.18 112.237 1205.96 111.423 1206.45 110.395C1206.83 109.6 1207.02 108.428 1207.02 106.879V105.59Z" fill="black"/>
<path d="M1215.89 123.988L1215.5 120.688C1216.26 120.896 1216.93 121 1217.51 121C1218.29 121 1218.91 120.87 1219.38 120.609C1219.85 120.349 1220.24 119.984 1220.54 119.516C1220.76 119.164 1221.11 118.292 1221.61 116.898C1221.67 116.703 1221.78 116.417 1221.92 116.039L1214.05 95.2578H1217.84L1222.16 107.27C1222.72 108.793 1223.22 110.395 1223.66 112.074C1224.06 110.46 1224.55 108.884 1225.11 107.348L1229.54 95.2578H1233.05L1225.16 116.352C1224.32 118.63 1223.66 120.199 1223.19 121.059C1222.57 122.217 1221.85 123.064 1221.04 123.598C1220.24 124.145 1219.27 124.418 1218.15 124.418C1217.48 124.418 1216.72 124.275 1215.89 123.988Z" fill="black"/>
<path d="M523.532 60V35.2959L502.031 1.30273H515.925L529.738 24.5254L543.271 1.30273H556.925L535.344 35.376V60H523.532Z" fill="#4789FD"/>
<path d="M554.042 38.1387C554.042 34.4017 554.963 30.7848 556.805 27.2881C558.646 23.7913 561.249 21.1221 564.612 19.2803C568.002 17.4385 571.779 16.5176 575.943 16.5176C582.376 16.5176 587.648 18.613 591.759 22.8037C595.869 26.9678 597.925 32.2396 597.925 38.6191C597.925 45.0521 595.843 50.3906 591.679 54.6348C587.541 58.8522 582.323 60.9609 576.023 60.9609C572.126 60.9609 568.403 60.0801 564.853 58.3184C561.329 56.5566 558.646 53.9808 556.805 50.5908C554.963 47.1742 554.042 43.0234 554.042 38.1387ZM565.573 38.7393C565.573 42.9567 566.574 46.1865 568.576 48.4287C570.578 50.6709 573.047 51.792 575.983 51.792C578.92 51.792 581.375 50.6709 583.351 48.4287C585.353 46.1865 586.354 42.93 586.354 38.6592C586.354 34.4951 585.353 31.292 583.351 29.0498C581.375 26.8076 578.92 25.6865 575.983 25.6865C573.047 25.6865 570.578 26.8076 568.576 29.0498C566.574 31.292 565.573 34.5218 565.573 38.7393Z" fill="#4789FD"/>
<path d="M634.761 60V53.6338C633.213 55.9027 631.171 57.6911 628.635 58.999C626.126 60.307 623.47 60.9609 620.667 60.9609C617.811 60.9609 615.248 60.3337 612.979 59.0791C610.711 57.8245 609.069 56.0628 608.055 53.7939C607.04 51.5251 606.533 48.3887 606.533 44.3848V17.4785H617.784V37.0176C617.784 42.9967 617.984 46.667 618.385 48.0283C618.812 49.363 619.573 50.4307 620.667 51.2314C621.761 52.0055 623.149 52.3926 624.831 52.3926C626.753 52.3926 628.475 51.8721 629.996 50.8311C631.518 49.7633 632.559 48.4554 633.119 46.9072C633.68 45.3324 633.96 41.502 633.96 35.416V17.4785H645.211V60H634.761Z" fill="#4789FD"/>
<path d="M667.673 60H656.422V17.4785H666.872V23.5244C668.66 20.6683 670.262 18.7865 671.677 17.8789C673.118 16.9714 674.746 16.5176 676.562 16.5176C679.124 16.5176 681.593 17.2249 683.969 18.6396L680.485 28.4492C678.59 27.2214 676.828 26.6074 675.2 26.6074C673.625 26.6074 672.291 27.0479 671.196 27.9287C670.102 28.7829 669.234 30.3444 668.594 32.6133C667.98 34.8822 667.673 39.6335 667.673 46.8672V60Z" fill="#4789FD"/>
<path d="M739.062 38.4189V28.5293H764.607V51.9121C762.125 54.3145 758.521 56.4365 753.797 58.2783C749.099 60.0934 744.334 61.001 739.503 61.001C733.364 61.001 728.012 59.7197 723.447 57.1572C718.883 54.568 715.453 50.8844 713.157 46.1064C710.862 41.3018 709.714 36.0833 709.714 30.4512C709.714 24.3385 710.995 18.9066 713.558 14.1553C716.12 9.40397 719.87 5.76042 724.809 3.22461C728.572 1.27604 733.257 0.301758 738.862 0.301758C746.149 0.301758 751.835 1.83659 755.919 4.90625C760.03 7.94922 762.672 12.1667 763.847 17.5586L752.075 19.7607C751.248 16.8779 749.686 14.609 747.391 12.9541C745.122 11.2725 742.279 10.4316 738.862 10.4316C733.684 10.4316 729.56 12.0732 726.49 15.3564C723.447 18.6396 721.926 23.5111 721.926 29.9707C721.926 36.9375 723.474 42.1693 726.57 45.666C729.667 49.1361 733.724 50.8711 738.742 50.8711C741.225 50.8711 743.707 50.3906 746.189 49.4297C748.699 48.4421 750.847 47.2542 752.636 45.8662V38.4189H739.062Z" fill="#4789FD"/>
<path d="M783.906 30.4512L773.696 28.6094C774.844 24.4987 776.819 21.4557 779.622 19.4805C782.425 17.5052 786.589 16.5176 792.114 16.5176C797.132 16.5176 800.869 17.1182 803.325 18.3193C805.781 19.4938 807.503 21.002 808.49 22.8438C809.505 24.6589 810.012 28.0088 810.012 32.8936L809.892 46.0264C809.892 49.7633 810.065 52.526 810.412 54.3145C810.786 56.0762 811.466 57.9714 812.454 60H801.323C801.03 59.2526 800.669 58.1449 800.242 56.6768C800.055 56.0094 799.922 55.569 799.842 55.3555C797.92 57.224 795.865 58.6253 793.676 59.5596C791.487 60.4938 789.151 60.9609 786.669 60.9609C782.291 60.9609 778.835 59.7731 776.299 57.3975C773.79 55.0218 772.535 52.0189 772.535 48.3887C772.535 45.9863 773.109 43.8509 774.257 41.9824C775.405 40.0872 777.006 38.6458 779.062 37.6582C781.144 36.6439 784.133 35.763 788.03 35.0156C793.289 34.028 796.932 33.1071 798.961 32.2529V31.1318C798.961 28.9697 798.427 27.4349 797.359 26.5273C796.292 25.5931 794.276 25.126 791.313 25.126C789.312 25.126 787.75 25.5264 786.629 26.3271C785.508 27.1012 784.6 28.4759 783.906 30.4512ZM798.961 39.5801C797.52 40.0605 795.237 40.6344 792.114 41.3018C788.991 41.9691 786.949 42.623 785.988 43.2637C784.52 44.3047 783.786 45.626 783.786 47.2275C783.786 48.8024 784.373 50.1637 785.548 51.3115C786.722 52.4593 788.217 53.0332 790.032 53.0332C792.061 53.0332 793.996 52.3659 795.838 51.0312C797.199 50.0169 798.093 48.7757 798.521 47.3076C798.814 46.3467 798.961 44.5182 798.961 41.8223V39.5801Z" fill="#4789FD"/>
<path d="M840.642 17.4785V26.4473H832.954V43.584C832.954 47.054 833.021 49.0827 833.154 49.6699C833.314 50.2305 833.648 50.6976 834.155 51.0713C834.689 51.445 835.33 51.6318 836.077 51.6318C837.118 51.6318 838.626 51.2715 840.602 50.5508L841.562 59.2793C838.947 60.4004 835.984 60.9609 832.674 60.9609C830.645 60.9609 828.817 60.6273 827.188 59.96C825.56 59.266 824.359 58.3851 823.585 57.3174C822.838 56.223 822.317 54.7549 822.023 52.9131C821.783 51.6051 821.663 48.9626 821.663 44.9854V26.4473H816.498V17.4785H821.663V9.03027L832.954 2.46387V17.4785H840.642Z" fill="#4789FD"/>
<path d="M873.073 46.4668L884.284 48.3486C882.843 52.4593 880.561 55.5957 877.438 57.7578C874.341 59.8932 870.457 60.9609 865.786 60.9609C858.392 60.9609 852.92 58.5452 849.37 53.7139C846.567 49.8434 845.166 44.9587 845.166 39.0596C845.166 32.0127 847.008 26.5007 850.691 22.5234C854.375 18.5195 859.033 16.5176 864.665 16.5176C870.991 16.5176 875.983 18.613 879.64 22.8037C883.297 26.9678 885.045 33.3607 884.885 41.9824H856.697C856.777 45.319 857.685 47.9215 859.42 49.79C861.155 51.6318 863.317 52.5527 865.906 52.5527C867.668 52.5527 869.149 52.0723 870.351 51.1113C871.552 50.1504 872.459 48.6022 873.073 46.4668ZM873.714 35.0957C873.634 31.8392 872.793 29.3701 871.191 27.6885C869.59 25.9801 867.641 25.126 865.346 25.126C862.89 25.126 860.861 26.0202 859.26 27.8086C857.658 29.597 856.871 32.026 856.897 35.0957H873.714Z" fill="#4789FD"/>
<path d="M902.021 60L888.568 17.4785H899.499L907.467 45.3457L914.794 17.4785H925.645L932.731 45.3457L940.859 17.4785H951.95L938.297 60H927.486L920.159 32.6533L912.952 60H902.021Z" fill="#4789FD"/>
<path d="M966.324 30.4512L956.114 28.6094C957.262 24.4987 959.237 21.4557 962.04 19.4805C964.843 17.5052 969.007 16.5176 974.532 16.5176C979.55 16.5176 983.287 17.1182 985.743 18.3193C988.199 19.4938 989.921 21.002 990.908 22.8438C991.923 24.6589 992.43 28.0088 992.43 32.8936L992.31 46.0264C992.31 49.7633 992.483 52.526 992.83 54.3145C993.204 56.0762 993.884 57.9714 994.872 60H983.741C983.448 59.2526 983.087 58.1449 982.66 56.6768C982.473 56.0094 982.34 55.569 982.26 55.3555C980.338 57.224 978.283 58.6253 976.094 59.5596C973.905 60.4938 971.569 60.9609 969.087 60.9609C964.709 60.9609 961.253 59.7731 958.717 57.3975C956.208 55.0218 954.953 52.0189 954.953 48.3887C954.953 45.9863 955.527 43.8509 956.675 41.9824C957.823 40.0872 959.424 38.6458 961.479 37.6582C963.562 36.6439 966.551 35.763 970.448 35.0156C975.707 34.028 979.35 33.1071 981.379 32.2529V31.1318C981.379 28.9697 980.845 27.4349 979.777 26.5273C978.71 25.5931 976.694 25.126 973.731 25.126C971.729 25.126 970.168 25.5264 969.047 26.3271C967.926 27.1012 967.018 28.4759 966.324 30.4512ZM981.379 39.5801C979.938 40.0605 977.655 40.6344 974.532 41.3018C971.409 41.9691 969.367 42.623 968.406 43.2637C966.938 44.3047 966.204 45.626 966.204 47.2275C966.204 48.8024 966.791 50.1637 967.966 51.3115C969.14 52.4593 970.635 53.0332 972.45 53.0332C974.479 53.0332 976.414 52.3659 978.256 51.0312C979.617 50.0169 980.511 48.7757 980.938 47.3076C981.232 46.3467 981.379 44.5182 981.379 41.8223V39.5801Z" fill="#4789FD"/>
<path d="M998.235 17.4785H1010.21L1020.38 47.668L1030.31 17.4785H1041.96L1026.94 58.3984L1024.26 65.8057C1023.27 68.2881 1022.33 70.1833 1021.42 71.4912C1020.54 72.7992 1019.51 73.8535 1018.33 74.6543C1017.19 75.4818 1015.76 76.1224 1014.05 76.5762C1012.37 77.0299 1010.46 77.2568 1008.33 77.2568C1006.16 77.2568 1004.04 77.0299 1001.96 76.5762L1000.96 67.7676C1002.72 68.1146 1004.31 68.2881 1005.72 68.2881C1008.34 68.2881 1010.27 67.514 1011.53 65.9658C1012.78 64.4443 1013.74 62.4958 1014.41 60.1201L998.235 17.4785Z" fill="#4789FD"/>
<path d="M1091.53 17.4785V26.4473H1083.84V43.584C1083.84 47.054 1083.91 49.0827 1084.04 49.6699C1084.2 50.2305 1084.53 50.6976 1085.04 51.0713C1085.57 51.445 1086.21 51.6318 1086.96 51.6318C1088 51.6318 1089.51 51.2715 1091.49 50.5508L1092.45 59.2793C1089.83 60.4004 1086.87 60.9609 1083.56 60.9609C1081.53 60.9609 1079.7 60.6273 1078.07 59.96C1076.44 59.266 1075.24 58.3851 1074.47 57.3174C1073.72 56.223 1073.2 54.7549 1072.91 52.9131C1072.67 51.6051 1072.55 48.9626 1072.55 44.9854V26.4473H1067.38V17.4785H1072.55V9.03027L1083.84 2.46387V17.4785H1091.53Z" fill="#4789FD"/>
<path d="M1096.73 38.1387C1096.73 34.4017 1097.65 30.7848 1099.49 27.2881C1101.34 23.7913 1103.94 21.1221 1107.3 19.2803C1110.69 17.4385 1114.47 16.5176 1118.63 16.5176C1125.07 16.5176 1130.34 18.613 1134.45 22.8037C1138.56 26.9678 1140.61 32.2396 1140.61 38.6191C1140.61 45.0521 1138.53 50.3906 1134.37 54.6348C1130.23 58.8522 1125.01 60.9609 1118.71 60.9609C1114.82 60.9609 1111.09 60.0801 1107.54 58.3184C1104.02 56.5566 1101.34 53.9808 1099.49 50.5908C1097.65 47.1742 1096.73 43.0234 1096.73 38.1387ZM1108.26 38.7393C1108.26 42.9567 1109.26 46.1865 1111.27 48.4287C1113.27 50.6709 1115.74 51.792 1118.67 51.792C1121.61 51.792 1124.06 50.6709 1126.04 48.4287C1128.04 46.1865 1129.04 42.93 1129.04 38.6592C1129.04 34.4951 1128.04 31.292 1126.04 29.0498C1124.06 26.8076 1121.61 25.6865 1118.67 25.6865C1115.74 25.6865 1113.27 26.8076 1111.27 29.0498C1109.26 31.292 1108.26 34.5218 1108.26 38.7393Z" fill="#4789FD"/>
<path d="M1209.92 38.4189L1221.41 42.0625C1219.65 48.4688 1216.72 53.2334 1212.6 56.3564C1208.52 59.4528 1203.33 61.001 1197.03 61.001C1189.24 61.001 1182.83 58.3451 1177.81 53.0332C1172.79 47.6947 1170.28 40.4076 1170.28 31.1719C1170.28 21.4023 1172.81 13.8216 1177.85 8.42969C1182.9 3.01107 1189.53 0.301758 1197.75 0.301758C1204.93 0.301758 1210.76 2.42383 1215.25 6.66797C1217.92 9.17708 1219.92 12.7806 1221.25 17.4785L1209.52 20.2812C1208.83 17.2383 1207.37 14.8359 1205.16 13.0742C1202.97 11.3125 1200.3 10.4316 1197.15 10.4316C1192.8 10.4316 1189.26 11.9932 1186.54 15.1162C1183.84 18.2393 1182.5 23.2975 1182.5 30.291C1182.5 37.7116 1183.83 42.9967 1186.5 46.1465C1189.17 49.2962 1192.64 50.8711 1196.91 50.8711C1200.06 50.8711 1202.77 49.8701 1205.04 47.8682C1207.31 45.8662 1208.93 42.7165 1209.92 38.4189Z" fill="#4789FD"/>
<path d="M1239.95 30.4512L1229.74 28.6094C1230.89 24.4987 1232.86 21.4557 1235.67 19.4805C1238.47 17.5052 1242.63 16.5176 1248.16 16.5176C1253.18 16.5176 1256.91 17.1182 1259.37 18.3193C1261.83 19.4938 1263.55 21.002 1264.54 22.8438C1265.55 24.6589 1266.06 28.0088 1266.06 32.8936L1265.94 46.0264C1265.94 49.7633 1266.11 52.526 1266.46 54.3145C1266.83 56.0762 1267.51 57.9714 1268.5 60H1257.37C1257.07 59.2526 1256.71 58.1449 1256.29 56.6768C1256.1 56.0094 1255.97 55.569 1255.89 55.3555C1253.96 57.224 1251.91 58.6253 1249.72 59.5596C1247.53 60.4938 1245.2 60.9609 1242.71 60.9609C1238.34 60.9609 1234.88 59.7731 1232.34 57.3975C1229.83 55.0218 1228.58 52.0189 1228.58 48.3887C1228.58 45.9863 1229.15 43.8509 1230.3 41.9824C1231.45 40.0872 1233.05 38.6458 1235.11 37.6582C1237.19 36.6439 1240.18 35.763 1244.08 35.0156C1249.33 34.028 1252.98 33.1071 1255.01 32.2529V31.1318C1255.01 28.9697 1254.47 27.4349 1253.4 26.5273C1252.34 25.5931 1250.32 25.126 1247.36 25.126C1245.36 25.126 1243.79 25.5264 1242.67 26.3271C1241.55 27.1012 1240.65 28.4759 1239.95 30.4512ZM1255.01 39.5801C1253.56 40.0605 1251.28 40.6344 1248.16 41.3018C1245.04 41.9691 1242.99 42.623 1242.03 43.2637C1240.57 44.3047 1239.83 45.626 1239.83 47.2275C1239.83 48.8024 1240.42 50.1637 1241.59 51.3115C1242.77 52.4593 1244.26 53.0332 1246.08 53.0332C1248.11 53.0332 1250.04 52.3659 1251.88 51.0312C1253.24 50.0169 1254.14 48.7757 1254.57 47.3076C1254.86 46.3467 1255.01 44.5182 1255.01 41.8223V39.5801Z" fill="#4789FD"/>
<path d="M1315.87 60H1304.61V38.2988C1304.61 33.7077 1304.37 30.7448 1303.89 29.4102C1303.41 28.0488 1302.63 26.9945 1301.53 26.2471C1300.46 25.4997 1299.17 25.126 1297.65 25.126C1295.7 25.126 1293.95 25.6598 1292.4 26.7275C1290.85 27.7952 1289.79 29.21 1289.2 30.9717C1288.64 32.7334 1288.36 35.9899 1288.36 40.7412V60H1277.11V17.4785H1287.56V23.7246C1291.27 18.9199 1295.94 16.5176 1301.57 16.5176C1304.05 16.5176 1306.32 16.9714 1308.38 17.8789C1310.43 18.7598 1311.98 19.8942 1313.02 21.2822C1314.09 22.6702 1314.82 24.2451 1315.22 26.0068C1315.65 27.7686 1315.87 30.291 1315.87 33.5742V60Z" fill="#4789FD"/>
<path d="M1335.72 30.4512L1325.51 28.6094C1326.66 24.4987 1328.64 21.4557 1331.44 19.4805C1334.24 17.5052 1338.41 16.5176 1343.93 16.5176C1348.95 16.5176 1352.69 17.1182 1355.14 18.3193C1357.6 19.4938 1359.32 21.002 1360.31 22.8438C1361.32 24.6589 1361.83 28.0088 1361.83 32.8936L1361.71 46.0264C1361.71 49.7633 1361.88 52.526 1362.23 54.3145C1362.6 56.0762 1363.28 57.9714 1364.27 60H1353.14C1352.85 59.2526 1352.49 58.1449 1352.06 56.6768C1351.87 56.0094 1351.74 55.569 1351.66 55.3555C1349.74 57.224 1347.68 58.6253 1345.49 59.5596C1343.31 60.4938 1340.97 60.9609 1338.49 60.9609C1334.11 60.9609 1330.65 59.7731 1328.12 57.3975C1325.61 55.0218 1324.35 52.0189 1324.35 48.3887C1324.35 45.9863 1324.93 43.8509 1326.08 41.9824C1327.22 40.0872 1328.82 38.6458 1330.88 37.6582C1332.96 36.6439 1335.95 35.763 1339.85 35.0156C1345.11 34.028 1348.75 33.1071 1350.78 32.2529V31.1318C1350.78 28.9697 1350.25 27.4349 1349.18 26.5273C1348.11 25.5931 1346.09 25.126 1343.13 25.126C1341.13 25.126 1339.57 25.5264 1338.45 26.3271C1337.33 27.1012 1336.42 28.4759 1335.72 30.4512ZM1350.78 39.5801C1349.34 40.0605 1347.06 40.6344 1343.93 41.3018C1340.81 41.9691 1338.77 42.623 1337.81 43.2637C1336.34 44.3047 1335.6 45.626 1335.6 47.2275C1335.6 48.8024 1336.19 50.1637 1337.37 51.3115C1338.54 52.4593 1340.04 53.0332 1341.85 53.0332C1343.88 53.0332 1345.81 52.3659 1347.66 51.0312C1349.02 50.0169 1349.91 48.7757 1350.34 47.3076C1350.63 46.3467 1350.78 44.5182 1350.78 41.8223V39.5801Z" fill="#4789FD"/>
<path d="M1411.96 60H1401.51V53.7539C1399.77 56.1829 1397.72 57.998 1395.34 59.1992C1392.99 60.3737 1390.62 60.9609 1388.22 60.9609C1383.33 60.9609 1379.14 58.999 1375.64 55.0752C1372.17 51.1247 1370.44 45.626 1370.44 38.5791C1370.44 31.3721 1372.13 25.9001 1375.52 22.1631C1378.91 18.3994 1383.2 16.5176 1388.38 16.5176C1393.13 16.5176 1397.24 18.4928 1400.71 22.4434V1.30273H1411.96V60ZM1381.93 37.8184C1381.93 42.3561 1382.56 45.6393 1383.81 47.668C1385.63 50.6042 1388.16 52.0723 1391.42 52.0723C1394.01 52.0723 1396.21 50.9779 1398.03 48.7891C1399.84 46.5736 1400.75 43.277 1400.75 38.8994C1400.75 34.0146 1399.87 30.5046 1398.11 28.3691C1396.34 26.207 1394.09 25.126 1391.34 25.126C1388.67 25.126 1386.43 26.1937 1384.61 28.3291C1382.82 30.4378 1381.93 33.6009 1381.93 37.8184Z" fill="#4789FD"/>
<path d="M1431.5 30.4512L1421.29 28.6094C1422.44 24.4987 1424.41 21.4557 1427.21 19.4805C1430.02 17.5052 1434.18 16.5176 1439.71 16.5176C1444.72 16.5176 1448.46 17.1182 1450.92 18.3193C1453.37 19.4938 1455.09 21.002 1456.08 22.8438C1457.1 24.6589 1457.6 28.0088 1457.6 32.8936L1457.48 46.0264C1457.48 49.7633 1457.66 52.526 1458 54.3145C1458.38 56.0762 1459.06 57.9714 1460.05 60H1448.92C1448.62 59.2526 1448.26 58.1449 1447.83 56.6768C1447.65 56.0094 1447.51 55.569 1447.43 55.3555C1445.51 57.224 1443.46 58.6253 1441.27 59.5596C1439.08 60.4938 1436.74 60.9609 1434.26 60.9609C1429.88 60.9609 1426.43 59.7731 1423.89 57.3975C1421.38 55.0218 1420.13 52.0189 1420.13 48.3887C1420.13 45.9863 1420.7 43.8509 1421.85 41.9824C1423 40.0872 1424.6 38.6458 1426.65 37.6582C1428.74 36.6439 1431.72 35.763 1435.62 35.0156C1440.88 34.028 1444.52 33.1071 1446.55 32.2529V31.1318C1446.55 28.9697 1446.02 27.4349 1444.95 26.5273C1443.88 25.5931 1441.87 25.126 1438.91 25.126C1436.9 25.126 1435.34 25.5264 1434.22 26.3271C1433.1 27.1012 1432.19 28.4759 1431.5 30.4512ZM1446.55 39.5801C1445.11 40.0605 1442.83 40.6344 1439.71 41.3018C1436.58 41.9691 1434.54 42.623 1433.58 43.2637C1432.11 44.3047 1431.38 45.626 1431.38 47.2275C1431.38 48.8024 1431.97 50.1637 1433.14 51.3115C1434.31 52.4593 1435.81 53.0332 1437.62 53.0332C1439.65 53.0332 1441.59 52.3659 1443.43 51.0312C1444.79 50.0169 1445.69 48.7757 1446.11 47.3076C1446.41 46.3467 1446.55 44.5182 1446.55 41.8223V39.5801Z" fill="#4789FD"/>
</svg>
