<svg width="700" height="461" viewBox="0 0 700 461" fill="none" xmlns="http://www.w3.org/2000/svg">
<path fill-rule="evenodd" clip-rule="evenodd" d="M652.332 125.909C617.523 140.864 579.812 145.586 544.19 140.019C533.239 138.306 525.716 129.489 525.988 118.685C526.258 107.883 534.257 97.9056 545.335 94.5462C549.418 93.3075 553.652 93.0126 557.676 93.6866C586.845 98.5705 617.091 96.2905 647.203 91.9964C665.749 89.3504 677.358 115.16 652.332 125.909Z" fill="#6F98E0"/>
<path fill-rule="evenodd" clip-rule="evenodd" d="M625.601 228.598L623.276 337.314L626.835 353.737L620.688 436.178L660.549 446.03L663.434 432.237L662.107 415.838L666.913 394.794C672.507 370.278 669.544 352.642 660.203 330.088L671.484 253.386C680.495 244.225 684.252 231.206 680.488 220.061L670.173 189.515L630.333 196.411L625.601 228.598Z" fill="#1B1919"/>
<path fill-rule="evenodd" clip-rule="evenodd" d="M79.8541 28.4265H535.159C560.201 28.4265 580.691 48.8781 580.691 73.8739V414.73C580.691 439.727 560.201 460.177 535.159 460.177H79.8541C54.8123 460.177 34.3239 439.727 34.3239 414.73V73.8739C34.3239 48.8781 54.8123 28.4265 79.8541 28.4265Z" fill="#4789FD"/>
<path fill-rule="evenodd" clip-rule="evenodd" d="M140.059 0.150981L588.642 77.9422C594.197 78.9058 597.946 84.2253 596.982 89.7674L538.533 425.593C537.569 431.134 532.239 434.879 526.686 433.917L78.1021 356.126C72.5508 355.165 68.7979 349.843 69.7606 344.302L128.212 8.47584C129.176 2.93513 134.507 -0.811306 140.059 0.150981Z" fill="white"/>
<path fill-rule="evenodd" clip-rule="evenodd" d="M79.8551 63.648H535.159C540.796 63.648 545.405 68.2501 545.405 73.8738V414.73C545.405 420.353 540.796 424.956 535.159 424.956H79.8551C74.2204 424.956 69.6102 420.353 69.6102 414.73V73.8738C69.6102 68.2501 74.2204 63.648 79.8551 63.648Z" fill="#FBFBE7"/>
<path fill-rule="evenodd" clip-rule="evenodd" d="M339.155 84.0996H491.682C516.725 84.0996 539.274 101.914 541.79 123.688L576.115 420.591C578.63 442.364 560.201 460.177 535.159 460.177H79.8541C54.8123 460.177 32.2637 442.364 29.7467 420.591L0 163.274H302.778C327.819 163.274 346.248 145.461 343.732 123.688L339.155 84.0996Z" fill="#4789FD"/>
<path fill-rule="evenodd" clip-rule="evenodd" d="M48.8367 198.857H117.416C125.399 198.857 133.079 205.374 134.483 213.341V213.343C135.886 221.309 130.506 227.83 122.524 227.83H53.9425C45.9601 227.83 38.2812 221.309 36.8769 213.343V213.341C35.473 205.374 40.8544 198.857 48.8367 198.857Z" fill="#90B8FF"/>
<path fill-rule="evenodd" clip-rule="evenodd" d="M631.349 228.598L645.014 337.314L650.991 353.737L656.968 436.178L698.278 446.03L699.134 432.237L695.395 415.838L697.103 394.794C699.093 370.278 693.535 352.642 680.878 330.088V253.386C688.54 244.225 690.381 231.206 684.979 220.061L670.173 189.515L631.349 196.411V228.598Z" fill="#2E2D2D"/>
<path fill-rule="evenodd" clip-rule="evenodd" d="M677.121 65.5028L683.609 82.2974L662.485 91.6635L653.184 61.422L674.335 52.8377L677.121 65.5028Z" fill="#F68B27"/>
<path fill-rule="evenodd" clip-rule="evenodd" d="M645.311 13.8986L639.901 22.7408C637.348 32.5875 642.61 31.7634 631.2 45.7896C629.205 48.8831 630.541 50.6813 633.401 52.8047C635.029 57.8307 635.311 71.2145 642.906 72.1228C651.184 73.1127 660.546 70.2785 666.891 64.8853C673.234 59.4894 677.029 51.6937 677.361 43.3833L681.23 14.7042L645.311 13.8986Z" fill="#F68B27"/>
<path fill-rule="evenodd" clip-rule="evenodd" d="M639.901 22.7408C639.253 20.7873 638.605 18.8358 637.956 16.881C636.074 11.2152 638.352 5.00312 643.452 1.8872C648.553 -1.22739 655.134 -0.423074 659.333 3.82889C667.264 5.21637 675.198 6.60381 683.135 7.99129C687.411 8.74032 690.379 12.6606 689.934 16.9691C702.094 21.6068 686.288 53.1945 677.121 65.5028C671.867 61.5773 671.445 49.579 668.928 40.2602C666.383 38.5186 661.973 38.4646 658.791 38.5186C662.303 26.338 660.629 21.924 655.578 22.1123C650.354 22.3071 645.129 22.5802 639.901 22.7408Z" fill="#1F1413"/>
<path fill-rule="evenodd" clip-rule="evenodd" d="M673.056 34.2423C676.236 35.5758 677.024 40.9085 674.817 46.1544C672.612 51.4002 668.242 54.5727 665.063 53.2406C661.884 51.907 661.095 46.5743 663.304 41.3284C665.509 36.0813 669.878 32.9101 673.056 34.2423Z" fill="#F68B27"/>
<path fill-rule="evenodd" clip-rule="evenodd" d="M646.003 34.97C647.596 34.8594 648.763 36.5799 648.616 38.8125C648.467 41.0438 647.056 42.9434 645.463 43.054C643.873 43.1646 642.702 41.444 642.854 39.2101C643.003 36.9788 644.414 35.0793 646.003 34.97ZM641.846 26.7439L641.457 31.6737L642.973 31.7922C645.733 32.0081 648.419 32.819 650.835 34.1683L653.071 32.0739C650.839 29.0712 647.414 27.1796 643.683 26.8873L641.846 26.7439Z" fill="#1F1413"/>
<path fill-rule="evenodd" clip-rule="evenodd" d="M638.389 58.4246C639.252 61.2904 641.254 63.5151 643.069 63.5151C644.883 63.5151 645.867 61.2904 645.419 58.4246H638.389Z" fill="white"/>
<path fill-rule="evenodd" clip-rule="evenodd" d="M681.574 68.9777L686.832 86.7148C692.676 106.415 690.118 140.515 680.904 160.615C678.402 166.063 678.336 172.066 680.718 177.033C686.795 189.703 686.701 195.343 679.506 206.732C659.05 205.513 647.946 205.467 627.515 215.58L621.471 208.568C615.086 201.166 614.165 190.215 619.114 180.649L621.199 164.879C623.471 147.694 627.099 130.563 632.045 113.647C638.677 90.9615 658.399 73.1783 681.574 68.9777Z" fill="#7FAEFF"/>
<path fill-rule="evenodd" clip-rule="evenodd" d="M620.316 171.557L621.199 164.879C622.783 152.915 625.022 140.978 627.903 129.122L657.228 120.79L654.044 130.058C648.134 147.263 635.966 162.079 620.316 171.557Z" fill="#6F98E0"/>
<path fill-rule="evenodd" clip-rule="evenodd" d="M544.153 131.572L542.952 128.926C541.132 124.669 537.591 121.378 533.204 119.869C528.078 118.105 525.972 116.993 523.77 112.047C522.696 109.641 520.097 112.504 520.253 117.006C520.336 119.424 524.866 120.837 526.318 125.27C517.712 128.623 505.748 129.783 499.659 132.553C497.647 133.467 496.889 136.45 500.846 136.375C504.931 136.298 509.694 134.509 514.448 134.938L514.55 135.458C510.997 137.327 506.612 138.191 501.649 140.423C497.938 142.094 498.426 146.275 504.075 145.689C503.469 147.157 504.358 149.022 505.925 149.402C509.097 150.171 518.487 147.271 522.596 145.178L523.511 146.506C521.707 148.293 518.574 149.231 516.241 151.436C512.177 155.271 514.405 157.804 518.976 155.563C521.483 154.335 525.089 151.859 527.506 150.119C531.807 148.527 533.31 146.936 537.576 145.257C543.074 143.094 545.849 137.193 544.153 131.572Z" fill="#F68B27"/>
<path fill-rule="evenodd" clip-rule="evenodd" d="M658.353 132.499C626.625 153.179 590.276 164.276 554.224 164.876C543.142 165.06 534.217 157.658 532.631 146.968C531.048 136.279 537.215 125.081 547.555 119.879C551.362 117.962 555.487 116.946 559.566 116.924C589.142 116.751 618.551 109.336 647.486 99.9605C665.304 94.1881 681.163 117.631 658.353 132.499Z" fill="#7FAEFF"/>
<path fill-rule="evenodd" clip-rule="evenodd" d="M631.349 420.337L620.689 436.177C616.624 442.214 610.451 446.52 603.378 448.255C601.744 448.658 600.481 449.957 600.133 451.598C599.779 453.244 600.403 454.943 601.734 455.976C603.724 457.516 605.875 458.839 608.151 459.915H661.784L660.306 453.348L660.55 446.029L631.349 420.337Z" fill="#1B1919"/>
<path fill-rule="evenodd" clip-rule="evenodd" d="M669.076 420.337L656.968 436.178C652.906 442.215 648.182 446.52 641.11 448.255C639.472 448.658 638.212 449.957 637.859 451.598C637.512 453.244 638.133 454.943 639.464 455.976C641.45 457.516 643.604 458.839 645.877 459.915L694.458 459.677L698.033 453.348L698.278 446.03L669.076 420.337Z" fill="#2E2D2D"/>
</svg>
