<svg width="47" height="46" viewBox="0 0 47 46" fill="none" xmlns="http://www.w3.org/2000/svg">
<path d="M40.979 17.5376C36.5236 10.5801 30.0045 6.57422 23.1383 6.57422C19.7052 6.57422 16.3685 7.57089 13.3211 9.43005C10.2737 11.3084 7.53493 14.0492 5.29762 17.5376C3.36889 20.5467 3.36889 25.4342 5.29762 28.4434C9.75296 35.4201 16.272 39.4067 23.1383 39.4067C26.5714 39.4067 29.9081 38.4101 32.9555 36.5509C36.0029 34.6726 38.7416 31.9317 40.979 28.4434C42.9077 25.4534 42.9077 20.5467 40.979 17.5376ZM23.1383 30.7434C18.818 30.7434 15.3463 27.2742 15.3463 23.0001C15.3463 18.7259 18.818 15.2567 23.1383 15.2567C27.4586 15.2567 30.9303 18.7259 30.9303 23.0001C30.9303 27.2742 27.4586 30.7434 23.1383 30.7434Z" fill="#4789FD"/>
<path d="M23.1385 17.5183C20.1104 17.5183 17.6416 19.9716 17.6416 23C17.6416 26.0091 20.1104 28.4625 23.1385 28.4625C26.1666 28.4625 28.6546 26.0091 28.6546 23C28.6546 19.9908 26.1666 17.5183 23.1385 17.5183Z" fill="#4789FD"/>
</svg>
