<svg width="40" height="40" viewBox="0 0 40 40" fill="none" xmlns="http://www.w3.org/2000/svg">
<path d="M9.01674 36.25C7.15008 36.25 5.96674 35.6166 5.21674 34.8666C3.75008 33.4 2.71674 30.2833 6.01674 23.6666L7.46674 20.7833C7.65008 20.4 7.65008 19.6 7.46674 19.2166L6.01674 16.3333C2.70008 9.71664 3.75008 6.58331 5.21674 5.13331C6.66674 3.66664 9.80008 2.61664 16.4001 5.93331L30.6667 13.0666C34.2167 14.8333 36.1667 17.3 36.1667 20C36.1667 22.7 34.2167 25.1666 30.6834 26.9333L16.4167 34.0666C13.1834 35.6833 10.7834 36.25 9.01674 36.25ZM9.01674 6.24998C8.11674 6.24998 7.41674 6.46664 6.98341 6.89998C5.76674 8.09998 6.25008 11.2166 8.25008 15.2L9.70008 18.1C10.2334 19.1833 10.2334 20.8166 9.70008 21.9L8.25008 24.7833C6.25008 28.7833 5.76674 31.8833 6.98341 33.0833C8.18341 34.3 11.3001 33.8166 15.3001 31.8166L29.5667 24.6833C32.1834 23.3833 33.6667 21.6666 33.6667 19.9833C33.6667 18.3 32.1667 16.5833 29.5501 15.2833L15.2834 8.16664C12.7501 6.89998 10.5667 6.24998 9.01674 6.24998Z" fill="white"/>
<path d="M18.0667 21.25H9.06665C8.38332 21.25 7.81665 20.6833 7.81665 20C7.81665 19.3167 8.38332 18.75 9.06665 18.75H18.0667C18.75 18.75 19.3167 19.3167 19.3167 20C19.3167 20.6833 18.75 21.25 18.0667 21.25Z" fill="white"/>
</svg>
