<svg width="100" height="100" viewBox="0 0 100 100" fill="none" xmlns="http://www.w3.org/2000/svg">
<path d="M68.75 35.9583C67.0417 35.9583 65.625 34.5417 65.625 32.8333V27.0833C65.625 22.7083 63.75 18.4583 60.5 15.5C57.2083 12.5 52.9583 11.125 48.4583 11.5417C40.9583 12.25 34.375 19.9167 34.375 27.9167V31.9583C34.375 33.6667 32.9583 35.0833 31.25 35.0833C29.5417 35.0833 28.125 33.6667 28.125 31.9583V27.875C28.125 16.6667 37.1667 6.33335 47.875 5.29168C54.125 4.70835 60.125 6.66668 64.7083 10.875C69.25 15 71.875 20.9167 71.875 27.0833V32.8333C71.875 34.5417 70.4583 35.9583 68.75 35.9583Z" fill="white"/>
<path d="M62.5002 94.7917H37.5002C18.2502 94.7917 14.6669 85.8333 13.7502 77.125L10.6252 52.1667C10.1669 47.6667 10.0002 41.2083 14.3752 36.375C18.1252 32.2083 24.3336 30.2083 33.3336 30.2083H66.6669C75.7086 30.2083 81.9169 32.25 85.6252 36.375C89.9586 41.2083 89.8336 47.6667 89.3752 52.0833L86.2502 77.125C85.3336 85.8333 81.7502 94.7917 62.5002 94.7917ZM33.3336 36.4583C26.2919 36.4583 21.4586 37.8333 19.0002 40.5833C16.9586 42.8333 16.2919 46.2917 16.8336 51.4583L19.9586 76.4167C20.6669 83.0833 22.5002 88.5833 37.5002 88.5833H62.5002C77.5002 88.5833 79.3336 83.125 80.0419 76.5L83.1669 51.4583C83.7086 46.375 83.0419 42.9167 81.0002 40.625C78.5419 37.8333 73.7086 36.4583 66.6669 36.4583H33.3336Z" fill="white"/>
<path d="M64.2498 54.7917C61.9165 54.7917 60.0415 52.9167 60.0415 50.625C60.0415 48.3333 61.9165 46.4583 64.2082 46.4583C66.4998 46.4583 68.3748 48.3333 68.3748 50.625C68.3748 52.9167 66.5415 54.7917 64.2498 54.7917Z" fill="white"/>
<path d="M35.0833 54.7917C32.75 54.7917 30.875 52.9167 30.875 50.625C30.875 48.3333 32.75 46.4583 35.0417 46.4583C37.3333 46.4583 39.2083 48.3333 39.2083 50.625C39.2083 52.9167 37.375 54.7917 35.0833 54.7917Z" fill="white"/>
</svg>
